<svg xmlns="http://www.w3.org/2000/svg" viewBox="0 0 512 512" width="512" height="512"><rect width="512" height="512" rx="112" fill="#FBF7F4"/><g transform="translate(36.7,49.5) scale(1.8291)">
<path d="M 190 150 C 208 112, 202 58, 166 38 C 146 24, 132 18, 120 18 C 108 18, 94 24, 74 38 C 38 58, 32 112, 50 150 C 56.6 150, 55.4 208, 62 208 C 69.0 208, 67.7 166, 74.7 166 C 80.9 166, 79.8 204, 86 204 C 92.2 204, 91.1 166, 97.3 166 C 103.6 166, 102.4 199, 108.7 199 C 114.9 199, 113.8 166, 120 166 C 126.2 166, 125.1 199, 131.3 199 C 137.6 199, 136.4 166, 142.7 166 C 148.9 166, 147.8 204, 154 204 C 160.6 204, 159.4 166, 166 166 C 172.6 166, 171.4 208, 178 208 C 184.6 208, 183.4 150, 190 150 Z" fill="#F5674A" stroke="#2A2340" stroke-width="6" stroke-linejoin="round"/><path d="M 74.7 168 q 0 9 0 15" stroke="#2A2340" stroke-width="3.4" stroke-linecap="round" fill="none" opacity="0.85"/><path d="M 97.3 168 q 0 9 0 15" stroke="#2A2340" stroke-width="3.4" stroke-linecap="round" fill="none" opacity="0.85"/><path d="M 120 168 q 0 9 0 15" stroke="#2A2340" stroke-width="3.4" stroke-linecap="round" fill="none" opacity="0.85"/><path d="M 142.7 168 q 0 9 0 15" stroke="#2A2340" stroke-width="3.4" stroke-linecap="round" fill="none" opacity="0.85"/><path d="M 166 168 q 0 9 0 15" stroke="#2A2340" stroke-width="3.4" stroke-linecap="round" fill="none" opacity="0.85"/><ellipse cx="120" cy="126" rx="46" ry="30" fill="#FFB49A" opacity="0.5"/><ellipse cx="90" cy="54" rx="12" ry="17" fill="#FFCBB8" opacity="0.7" transform="rotate(-20 90 54)"/><circle cx="83" cy="110" r="9" fill="#FF8E74" opacity="0.55"/><circle cx="157" cy="110" r="9" fill="#FF8E74" opacity="0.55"/><ellipse cx="100" cy="92" rx="13" ry="15.5" fill="#FFF7F1" stroke="#2A2340" stroke-width="4"/><circle cx="102" cy="95" r="6.6" fill="#2A2340"/><circle cx="104.5" cy="92" r="2.5" fill="#fff"/><ellipse cx="140" cy="92" rx="13" ry="15.5" fill="#FFF7F1" stroke="#2A2340" stroke-width="4"/><circle cx="142" cy="95" r="6.6" fill="#2A2340"/><circle cx="144.5" cy="92" r="2.5" fill="#fff"/><path d="M104 118 Q120 135 136 118" fill="none" stroke="#2A2340" stroke-width="5" stroke-linecap="round"/>
</g></svg>