<svg xmlns="http://www.w3.org/2000/svg" viewBox="0 0 120 120">
  <defs>
    <linearGradient id="bg" x1="0" y1="0" x2="0" y2="1">
      <stop offset="0" stop-color="#332A48"/>
      <stop offset="1" stop-color="#211A30"/>
    </linearGradient>
  </defs>
  <rect width="120" height="120" fill="url(#bg)"/>
  <g transform="translate(60 60) scale(0.62) translate(-60 -60)">
  <g stroke="#FF6A5B" stroke-width="12" stroke-linecap="round" fill="none">
    <path d="M40 74 C 30 92, 26 99, 19 99"/>
    <path d="M50 81 C 46 98, 44 103, 39 105"/>
    <path d="M60 83 L60 105"/>
    <path d="M70 81 C 74 98, 76 103, 81 105"/>
    <path d="M80 74 C 90 92, 94 99, 101 99"/>
  </g>
  <path d="M60 23 C 41 23, 31 40, 31 57 C 31 74, 45 84, 60 84 C 75 84, 89 74, 89 57 C 89 40, 79 23, 60 23 Z" fill="#FF6A5B" stroke="#2A2340" stroke-width="2.6"/>
  <path d="M45 39 C 50 33, 70 33, 75 39" stroke="#FF9080" stroke-width="3.2" fill="none" stroke-linecap="round" opacity=".7"/>
  <ellipse cx="51.5" cy="55" rx="2.9" ry="3.9" fill="#2A2340"/>
  <ellipse cx="68.5" cy="55" rx="2.9" ry="3.9" fill="#2A2340"/>
  <circle cx="52.7" cy="53.3" r="1" fill="#fff"/>
  <circle cx="69.7" cy="53.3" r="1" fill="#fff"/>
  <path d="M53.5 65 Q60 69.5 66.5 65" stroke="#2A2340" stroke-width="2.3" fill="none" stroke-linecap="round"/>
  </g>
</svg>
