<svg xmlns="http://www.w3.org/2000/svg" viewBox="0 0 120 120">
  <defs>
    <linearGradient id="bg" x1="0" y1="0" x2="0" y2="1">
      <stop offset="0" stop-color="#332A48"/>
      <stop offset="1" stop-color="#211A30"/>
    </linearGradient>
  </defs>
  <rect width="120" height="120" fill="url(#bg)"/>
  <g transform="translate(60 60) scale(0.62) translate(-60 -60)">
  <g stroke="#FF6A5B" stroke-width="12" stroke-linecap="round" fill="none">
    <path d="M41 75 C 29 89, 35 101, 21 101"/>
    <path d="M50 82 C 44 95, 50 103, 41 106"/>
    <path d="M60 84 C 58 95, 63 101, 60 107"/>
    <path d="M70 82 C 76 95, 70 103, 79 106"/>
    <path d="M79 75 C 91 89, 85 101, 99 101"/>
  </g>
  <path d="M60 23 C 41 23, 31 40, 31 57 C 31 74, 45 84, 60 84 C 75 84, 89 74, 89 57 C 89 40, 79 23, 60 23 Z" fill="#FF6A5B" stroke="#2A2340" stroke-width="2.6"/>
  <path d="M44 38 C 50 32, 70 32, 76 38" stroke="#FF9A8B" stroke-width="3.4" fill="none" stroke-linecap="round" opacity=".75"/>
  <circle cx="51.5" cy="54.5" r="3.3" fill="#2A2340"/>
  <circle cx="68.5" cy="54.5" r="3.3" fill="#2A2340"/>
  <circle cx="52.9" cy="52.9" r="1.15" fill="#fff"/>
  <circle cx="69.9" cy="52.9" r="1.15" fill="#fff"/>
  <path d="M50.5 63.5 Q60 73 70 64.5" stroke="#2A2340" stroke-width="2.6" fill="none" stroke-linecap="round"/>
  </g>
</svg>
