<svg xmlns="http://www.w3.org/2000/svg" viewBox="0 0 512 512" width="512" height="512"><rect width="512" height="512" rx="112" fill="#FBF7F4"/><g transform="translate(8.9,-11.9) scale(4.1219)"><g transform="translate(60 63) scale(0.8) translate(-60 -55)">
  <path d="M60 7 l3.4 7 7.7 1.1 -5.6 5.4 1.3 7.6 -6.8 -3.6 -6.8 3.6 1.3 -7.6 -5.6 -5.4 7.7 -1.1z" fill="#FFC24B" stroke="#2A2340" stroke-width="1.6" stroke-linejoin="round"/>
  <g stroke="#FF6A5B" stroke-width="12" stroke-linecap="round" fill="none">
    <path d="M40 72 C 30 90, 26 97, 19 97"/>
    <path d="M50 79 C 46 96, 44 101, 39 103"/>
    <path d="M60 81 L60 103"/>
    <path d="M70 79 C 74 96, 76 101, 81 103"/>
    <path d="M80 72 C 90 90, 94 97, 101 97"/>
  </g>
  <path d="M60 28 C 39 28, 29 45, 29 61 C 29 76, 43 83, 60 83 C 77 83, 91 76, 91 61 C 91 45, 81 28, 60 28 Z" fill="#FF6A5B" stroke="#2A2340" stroke-width="3"/>
  <circle cx="50" cy="57" r="7.5" fill="#fff" stroke="#2A2340" stroke-width="2"/>
  <circle cx="70" cy="57" r="7.5" fill="#fff" stroke="#2A2340" stroke-width="2"/>
  <circle cx="51.4" cy="58.2" r="3.5" fill="#2A2340"/>
  <circle cx="71.4" cy="58.2" r="3.5" fill="#2A2340"/>
  <circle cx="49.6" cy="56" r="1.3" fill="#fff"/>
  <circle cx="69.6" cy="56" r="1.3" fill="#fff"/>
  <circle cx="41.5" cy="66" r="3.2" fill="#FF9B8F"/>
  <circle cx="78.5" cy="66" r="3.2" fill="#FF9B8F"/>
  <path d="M54 68 Q60 74 66 68" stroke="#2A2340" stroke-width="2.6" fill="none" stroke-linecap="round"/>
  </g></g></svg>