<svg xmlns="http://www.w3.org/2000/svg" viewBox="0 0 120 120">
  <defs>
    <linearGradient id="bg" x1="0" y1="0" x2="0" y2="1">
      <stop offset="0" stop-color="#332A48"/>
      <stop offset="1" stop-color="#211A30"/>
    </linearGradient>
  </defs>
  <rect width="120" height="120" fill="url(#bg)"/>
  <g transform="translate(60 60) scale(0.64) translate(-60 -62)">
    <g fill="none" stroke-linecap="round">
      <g stroke="#2A2340" stroke-width="15">
        <path d="M34 76 C 20 90, 16 106, 25 110"/>
        <path d="M46 80 C 40 96, 46 107, 39 111"/>
        <path d="M55 82 C 53 97, 58 107, 55 112"/>
        <path d="M65 82 C 67 97, 62 107, 65 112"/>
        <path d="M74 80 C 80 96, 74 107, 81 111"/>
        <path d="M86 76 C 100 90, 104 106, 95 110"/>
      </g>
      <g stroke="#FF6A5B" stroke-width="11">
        <path d="M34 76 C 20 90, 16 106, 25 110"/>
        <path d="M46 80 C 40 96, 46 107, 39 111"/>
        <path d="M55 82 C 53 97, 58 107, 55 112"/>
        <path d="M65 82 C 67 97, 62 107, 65 112"/>
        <path d="M74 80 C 80 96, 74 107, 81 111"/>
        <path d="M86 76 C 100 90, 104 106, 95 110"/>
      </g>
    </g>
    <circle cx="22" cy="102" r="1.4" fill="#2A2340"/><circle cx="26" cy="108" r="1.4" fill="#2A2340"/>
    <circle cx="94" cy="102" r="1.4" fill="#2A2340"/><circle cx="90" cy="108" r="1.4" fill="#2A2340"/>
    <path d="M60 20 C 37 20, 26 39, 26 57 C 26 76, 42 86, 60 86 C 78 86, 94 76, 94 57 C 94 39, 83 20, 60 20 Z" fill="#FF6A5B" stroke="#2A2340" stroke-width="3.2"/>
    <ellipse cx="50" cy="53" rx="3.6" ry="4.9" fill="#2A2340"/><ellipse cx="70" cy="53" rx="3.6" ry="4.9" fill="#2A2340"/>
    <circle cx="51.4" cy="51.2" r="1.15" fill="#fff"/><circle cx="71.4" cy="51.2" r="1.15" fill="#fff"/>
    <path d="M53 62.5 Q60 68.5 67 62.5" stroke="#2A2340" stroke-width="2.6" fill="none" stroke-linecap="round"/>
  </g>
</svg>
