<svg xmlns="http://www.w3.org/2000/svg" viewBox="871 232 1074 961" width="1074" height="961"><defs><linearGradient id="cor" x1="0" y1="0" x2="0" y2="1"><stop offset="0" stop-color="#F26A4B"/><stop offset="1" stop-color="#FF9878"/></linearGradient></defs><path d="M1809 614 L1802 620 L1798 630 L1786 630 L1783 633 L1771 685 L1769 701 L1770 703 L1784 706 L1848 713 L1850 671 L1849 639 L1845 637 L1837 637 L1835 635 L1833 622 L1825 614 L1819 612ZM966 510 L962 510 L958 513 L959 524 L964 541 L964 549 L952 549 L933 561 L918 575 L900 603 L895 616 L891 636 L891 658 L893 672 L899 692 L906 706 L914 717 L932 735 L959 751 L975 737 L987 730 L967 726 L956 718 L956 699 L946 683 L941 668 L940 648 L944 631 L951 619 L968 603 L962 581 L948 590 L935 603 L922 622 L916 646 L916 662 L919 674 L918 684 L909 683 L904 661 L905 628 L914 602 L929 582 L944 568 L957 561 L959 555 L968 556 L986 625 L986 639 L974 645 L970 653 L972 694 L969 713 L998 714 L1015 711 L1033 705 L1058 691 L1040 667 L1028 639 L1023 635 L1006 634 L1000 624 L972 518ZM996 687 L1006 688 L1005 704 L996 703ZM981 674 L991 675 L991 688 L988 703 L979 702ZM1675 319 L1668 325 L1666 331 L1668 348 L1677 373 L1687 394 L1707 421 L1706 437 L1714 458 L1714 466 L1709 472 L1706 480 L1707 490 L1714 501 L1725 509 L1734 512 L1738 516 L1741 524 L1746 530 L1750 532 L1760 531 L1765 528 L1768 523 L1768 510 L1783 501 L1793 492 L1802 480 L1808 468 L1812 454 L1812 419 L1807 404 L1791 378 L1773 362 L1747 349 L1718 344 L1723 357 L1741 360 L1762 369 L1784 389 L1797 412 L1801 432 L1800 453 L1796 465 L1789 477 L1775 491 L1767 496 L1751 501 L1739 501 L1726 496 L1726 486 L1750 485 L1761 479 L1772 468 L1779 453 L1779 427 L1773 413 L1762 399 L1746 389 L1731 384 L1732 397 L1744 402 L1754 409 L1761 417 L1767 431 L1768 446 L1766 454 L1759 465 L1751 465 L1747 459 L1735 429 L1729 422 L1724 421 L1721 417 L1720 393 L1717 377 L1710 357 L1692 323 L1685 319ZM1718 432 L1728 433 L1740 464 L1739 473 L1731 473 L1728 470 L1717 443ZM1701 391 L1710 390 L1711 399 L1702 400ZM1047 359 L1035 368 L1020 384 L1008 406 L1003 424 L1004 457 L1012 477 L1028 497 L1028 507 L1026 511 L1028 520 L1035 525 L1044 526 L1050 523 L1057 514 L1080 513 L1099 504 L1108 492 L1110 481 L1105 468 L1103 466 L1096 465 L1096 457 L1113 435 L1133 432 L1146 423 L1149 411 L1149 401 L1147 395 L1132 412 L1124 412 L1115 405 L1115 395 L1124 383 L1125 379 L1119 378 L1104 384 L1096 392 L1094 401 L1094 422 L1062 461 L1054 461 L1048 449 L1048 434 L1051 424 L1056 416 L1065 407 L1082 398 L1088 384 L1072 388 L1058 396 L1045 410 L1036 429 L1035 443 L1038 457 L1046 471 L1057 481 L1069 486 L1091 487 L1091 495 L1084 499 L1058 500 L1044 493 L1028 478 L1020 464 L1016 451 L1015 433 L1018 415 L1023 402 L1035 385 L1056 368 L1083 357 L1120 357 L1139 363 L1152 370 L1164 379 L1182 400 L1190 416 L1197 444 L1196 479 L1179 551 L1178 567 L1182 593 L1195 618 L1210 633 L1228 643 L1229 652 L1207 652 L1188 644 L1178 637 L1160 617 L1152 600 L1148 576 L1146 573 L1144 585 L1136 585 L1127 582 L1127 565 L1129 554 L1139 552 L1148 553 L1149 546 L1142 545 L1141 538 L1138 537 L1138 528 L1144 514 L1146 512 L1153 512 L1156 501 L1157 484 L1159 482 L1167 482 L1171 465 L1170 439 L1168 436 L1163 435 L1159 422 L1156 427 L1153 428 L1152 455 L1149 473 L1126 525 L1118 548 L1115 562 L1113 591 L1105 591 L1089 572 L1079 563 L1065 553 L1049 545 L1022 538 L995 537 L989 539 L992 550 L1013 549 L1033 553 L1049 559 L1068 570 L1089 591 L1132 652 L1154 673 L1177 686 L1194 691 L1221 692 L1244 686 L1265 673 L1274 674 L1274 682 L1261 696 L1231 712 L1206 719 L1179 719 L1158 713 L1137 702 L1115 682 L1097 658 L1071 615 L1050 592 L1029 579 L1011 574 L999 574 L1004 596 L1014 597 L1029 604 L1051 626 L1075 681 L1087 701 L1087 710 L1071 715 L1053 727 L1027 730 L999 739 L982 749 L963 766 L948 787 L939 808 L935 827 L936 862 L940 876 L953 899 L961 909 L979 925 L996 934 L1013 939 L1030 940 L1049 937 L1063 932 L1075 924 L1090 906 L1096 893 L1099 879 L1099 868 L1095 853 L1087 839 L1080 833 L1070 828 L1053 825 L1041 829 L1035 834 L1033 844 L1039 849 L1053 853 L1058 858 L1060 863 L1060 874 L1057 881 L1048 890 L1040 893 L1023 893 L1011 887 L999 875 L993 865 L989 852 L989 839 L993 825 L999 814 L1013 800 L1026 793 L1039 790 L1057 791 L1074 796 L1104 810 L1107 813 L1109 827 L1116 850 L1126 871 L1139 889 L1139 897 L1115 916 L1093 939 L1078 961 L1066 989 L1062 1011 L1064 1047 L1073 1071 L1086 1090 L1099 1103 L1113 1112 L1131 1119 L1142 1121 L1159 1121 L1179 1117 L1195 1109 L1208 1098 L1219 1081 L1224 1064 L1224 1049 L1221 1037 L1215 1026 L1208 1018 L1194 1009 L1185 1007 L1168 1010 L1158 1018 L1156 1022 L1157 1030 L1163 1035 L1176 1038 L1181 1044 L1181 1055 L1172 1066 L1163 1070 L1148 1068 L1137 1059 L1129 1043 L1128 1025 L1135 1005 L1149 989 L1181 968 L1205 956 L1213 956 L1221 989 L1235 1014 L1255 1036 L1302 1076 L1309 1086 L1314 1099 L1313 1120 L1308 1129 L1299 1136 L1293 1138 L1280 1137 L1270 1129 L1264 1120 L1259 1119 L1253 1128 L1253 1141 L1257 1151 L1270 1165 L1279 1170 L1290 1173 L1313 1171 L1336 1160 L1349 1147 L1361 1125 L1366 1101 L1365 1081 L1361 1065 L1353 1048 L1314 991 L1306 975 L1303 962 L1303 945 L1305 935 L1314 918 L1325 907 L1340 896 L1384 850 L1398 842 L1417 842 L1434 852 L1470 891 L1500 916 L1508 928 L1512 940 L1513 960 L1506 983 L1494 1003 L1465 1043 L1457 1059 L1451 1078 L1450 1107 L1453 1121 L1461 1139 L1475 1156 L1496 1169 L1507 1172 L1522 1173 L1541 1168 L1558 1152 L1563 1138 L1562 1125 L1558 1120 L1553 1119 L1545 1129 L1535 1137 L1517 1136 L1507 1128 L1502 1119 L1501 1099 L1510 1080 L1526 1064 L1565 1032 L1580 1015 L1595 988 L1600 971 L1600 959 L1602 956 L1611 956 L1640 971 L1661 985 L1678 1002 L1683 1010 L1687 1023 L1687 1040 L1682 1055 L1671 1066 L1661 1070 L1653 1070 L1642 1065 L1637 1060 L1635 1056 L1635 1044 L1638 1040 L1649 1036 L1658 1030 L1660 1024 L1657 1017 L1650 1011 L1642 1008 L1626 1008 L1617 1011 L1610 1016 L1598 1030 L1594 1038 L1591 1051 L1593 1071 L1604 1093 L1611 1101 L1626 1112 L1640 1118 L1654 1121 L1676 1121 L1686 1119 L1703 1112 L1720 1100 L1735 1083 L1747 1061 L1753 1038 L1754 1017 L1750 992 L1745 977 L1735 957 L1709 924 L1677 897 L1677 889 L1689 873 L1700 850 L1706 829 L1708 814 L1715 808 L1734 799 L1761 791 L1786 792 L1798 797 L1810 807 L1810 815 L1806 816 L1805 819 L1797 819 L1795 812 L1791 815 L1783 815 L1780 811 L1776 818 L1770 845 L1761 844 L1756 828 L1742 813 L1734 813 L1726 825 L1724 834 L1725 854 L1729 860 L1742 860 L1743 870 L1739 876 L1739 890 L1728 890 L1724 892 L1723 896 L1725 904 L1730 913 L1745 927 L1758 934 L1773 939 L1809 938 L1827 931 L1845 919 L1859 905 L1868 892 L1875 877 L1881 854 L1881 828 L1875 802 L1866 784 L1850 763 L1834 749 L1815 738 L1790 730 L1761 727 L1748 717 L1740 713 L1730 711 L1729 701 L1745 671 L1763 630 L1771 618 L1786 604 L1798 598 L1811 595 L1829 596 L1849 604 L1860 613 L1870 627 L1876 649 L1874 672 L1866 689 L1859 717 L1857 719 L1852 719 L1852 722 L1829 731 L1842 739 L1855 750 L1862 749 L1883 736 L1898 722 L1910 705 L1921 680 L1925 656 L1924 631 L1918 608 L1909 590 L1896 573 L1879 558 L1855 545 L1829 538 L1802 537 L1772 543 L1754 551 L1731 568 L1711 591 L1703 591 L1701 566 L1695 539 L1670 481 L1665 463 L1664 444 L1666 433 L1672 420 L1680 409 L1680 405 L1672 394 L1658 411 L1655 417 L1656 426 L1654 434 L1647 437 L1645 444 L1645 468 L1648 480 L1658 481 L1661 489 L1660 499 L1664 509 L1668 509 L1670 511 L1680 534 L1679 544 L1668 544 L1665 536 L1668 557 L1668 577 L1664 599 L1659 612 L1652 623 L1637 638 L1624 646 L1610 651 L1588 653 L1587 644 L1605 634 L1619 620 L1627 608 L1635 588 L1636 543 L1620 481 L1619 441 L1626 415 L1634 400 L1643 388 L1663 370 L1659 358 L1631 383 L1622 396 L1614 412 L1607 438 L1607 481 L1622 538 L1625 558 L1625 572 L1621 591 L1608 613 L1591 628 L1575 635 L1557 635 L1546 631 L1537 623 L1531 612 L1531 597 L1539 575 L1571 506 L1579 478 L1583 448 L1581 404 L1577 385 L1569 361 L1560 342 L1541 314 L1524 296 L1498 277 L1474 265 L1449 257 L1424 253 L1387 253 L1358 259 L1339 266 L1321 275 L1299 290 L1280 308 L1268 323 L1257 340 L1244 368 L1237 392 L1233 421 L1233 451 L1236 474 L1241 495 L1250 520 L1280 582 L1284 594 L1285 612 L1279 623 L1266 633 L1260 635 L1238 634 L1223 627 L1209 614 L1200 602 L1192 581 L1192 547 L1207 489 L1210 449 L1207 428 L1202 412 L1189 389 L1168 367 L1146 353 L1122 345 L1085 345 L1069 349ZM1488 1136 L1497 1135 L1498 1139 L1502 1140 L1508 1145 L1522 1149 L1523 1158 L1506 1159 L1501 1157 L1491 1148 L1491 1145 L1488 1144ZM1328 1135 L1328 1143 L1324 1144 L1324 1148 L1314 1157 L1309 1159 L1293 1158 L1294 1149 L1301 1148 L1313 1140 L1318 1139 L1319 1134ZM1606 1059 L1615 1059 L1617 1061 L1618 1068 L1622 1077 L1624 1078 L1624 1083 L1629 1083 L1632 1087 L1646 1093 L1645 1103 L1636 1103 L1620 1092 L1620 1087 L1614 1086 L1605 1069ZM1505 1056 L1506 1065 L1494 1081 L1488 1097 L1487 1108 L1489 1120 L1492 1126 L1492 1134 L1483 1135 L1476 1118 L1476 1097 L1481 1079 L1492 1059 L1495 1056ZM1309 1052 L1317 1052 L1330 1071 L1338 1091 L1340 1111 L1338 1122 L1334 1131 L1325 1130 L1328 1110 L1327 1096 L1320 1079 L1306 1062 L1306 1054ZM1210 1047 L1211 1067 L1203 1084 L1189 1098 L1180 1103 L1172 1103 L1171 1093 L1185 1086 L1195 1073 L1200 1060 L1201 1048ZM1607 1041 L1616 1042 L1615 1057 L1605 1056 L1605 1046ZM1303 1013 L1313 1013 L1336 1044 L1336 1055 L1327 1054 L1302 1022ZM1699 1013 L1708 1012 L1709 1021 L1700 1022ZM1513 1012 L1514 1021 L1489 1052 L1481 1052 L1480 1043 L1502 1013ZM1108 1009 L1117 1010 L1116 1030 L1114 1037 L1105 1036 L1105 1020ZM1136 974 L1137 983 L1125 999 L1116 1000 L1115 991 L1127 974ZM1672 966 L1681 965 L1689 974 L1689 982 L1680 983 L1672 976ZM1281 939 L1290 940 L1289 959 L1279 958 L1279 941ZM1768 916 L1778 915 L1779 924 L1769 925ZM1817 911 L1816 922 L1799 927 L1784 926 L1785 917 L1793 916 L1808 910ZM1071 902 L1071 910 L1064 916 L1054 922 L1044 921 L1044 912 L1046 910 L1053 908 L1062 901ZM976 897 L985 896 L986 905 L977 906ZM1169 891 L1178 890 L1179 892 L1199 900 L1201 902 L1201 911 L1191 912 L1174 903 L1169 899ZM1648 890 L1648 898 L1630 910 L1621 909 L1622 898 L1639 889ZM1076 859 L1084 859 L1086 864 L1086 883 L1080 897 L1071 896 L1071 888 L1075 879ZM1342 854 L1351 855 L1351 866 L1343 866 L1340 864 L1340 856ZM1070 850 L1079 849 L1080 858 L1071 859ZM1763 845 L1771 845 L1781 857 L1781 866 L1774 872 L1771 879 L1763 879 L1760 872 L1751 866 L1751 855 L1760 853ZM1367 835 L1368 844 L1362 851 L1354 851 L1353 842 L1359 835ZM1445 830 L1453 830 L1458 836 L1458 847 L1450 847 L1444 839ZM1810 820 L1819 819 L1820 828 L1811 829ZM1529 777 L1538 776 L1539 785 L1530 786ZM1506 762 L1515 761 L1517 763 L1517 771 L1508 772 L1506 770ZM1300 762 L1309 761 L1310 770 L1301 771ZM1632 735 L1635 733 L1643 733 L1644 743 L1633 744ZM1172 734 L1186 734 L1187 743 L1173 744ZM1085 724 L1097 723 L1099 725 L1099 734 L1090 735 L1086 733ZM1719 724 L1733 722 L1734 731 L1729 734 L1720 734ZM1663 723 L1672 722 L1673 731 L1664 732ZM1142 723 L1151 722 L1152 731 L1143 732ZM1606 693 L1616 692 L1617 702 L1607 703ZM1095 680 L1103 680 L1108 686 L1108 697 L1098 696 L1094 689ZM1725 673 L1726 682 L1715 700 L1705 700 L1704 690 L1717 673ZM1899 667 L1909 668 L1909 676 L1904 688 L1895 687 L1895 679ZM1645 652 L1653 652 L1655 654 L1655 662 L1650 666 L1641 665 L1641 657ZM1155 643 L1163 643 L1176 658 L1175 667 L1167 667 L1154 656ZM1428 596 L1437 595 L1438 604 L1429 605ZM1375 596 L1384 595 L1386 597 L1386 605 L1377 606 L1375 604ZM1531 361 L1540 362 L1542 370 L1541 380 L1530 379ZM1518 334 L1528 333 L1531 337 L1531 345 L1522 346 L1518 342Z" fill="url(#cor)" fill-rule="evenodd"/><g transform="translate(0.000000,1536.000000) scale(0.100000,-0.100000)"
fill="#2A2340" stroke="none">
<path d="M13910 12830 c-445 -44 -865 -264 -1145 -600 -230 -275 -373 -603
-421 -960 -18 -141 -18 -415 1 -549 45 -305 133 -550 357 -991 113 -223 139
-296 146 -411 5 -104 -7 -137 -82 -214 -112 -114 -293 -133 -466 -49 -58 29
-95 57 -166 128 -151 152 -213 306 -214 528 0 118 26 276 65 398 159 495 164
873 15 1185 -108 225 -320 433 -545 536 -35 16 -104 41 -152 56 -81 25 -101
27 -263 27 -158 0 -185 -3 -273 -27 -192 -52 -316 -119 -445 -241 -97 -92
-156 -172 -208 -281 -68 -143 -89 -236 -87 -390 0 -99 6 -149 22 -210 36 -135
116 -269 219 -369 l40 -38 -25 -55 c-28 -60 -27 -105 2 -150 38 -58 132 -81
196 -48 16 9 45 37 63 62 l34 47 114 2 c87 1 126 6 170 22 204 74 300 259 213
408 -40 68 -55 72 -123 26 -31 -22 -68 -43 -82 -47 l-24 -8 25 34 c14 19 78
105 143 191 l117 157 67 6 c119 12 172 32 222 84 60 61 85 135 78 233 -9 116
-25 114 -115 -14 -30 -42 -63 -80 -73 -83 -45 -14 -170 79 -170 127 0 27 22
63 90 149 33 42 38 54 28 66 -18 22 -100 10 -174 -27 -117 -57 -165 -175 -134
-330 7 -39 6 -49 -13 -76 -27 -39 -153 -195 -266 -332 l-86 -103 -19 23 c-10
13 -32 51 -49 86 -27 59 -29 69 -25 156 3 80 8 102 36 158 52 106 163 200 285
242 11 3 21 16 25 28 3 12 18 47 33 77 16 30 27 56 26 57 -1 1 -35 -6 -75 -17
-148 -38 -267 -115 -351 -229 -102 -137 -134 -248 -113 -392 16 -110 57 -194
133 -274 70 -73 137 -110 223 -124 83 -13 138 -3 209 40 34 21 64 34 66 28 9
-24 -13 -83 -45 -117 -57 -64 -120 -86 -244 -86 -100 0 -108 2 -180 37 -235
114 -371 352 -356 623 10 186 59 317 173 458 106 131 240 219 433 283 80 27
95 28 255 28 156 0 177 -3 259 -28 457 -139 724 -561 685 -1082 -9 -116 -51
-317 -109 -519 -85 -297 -97 -494 -44 -703 34 -134 130 -292 234 -385 122
-110 300 -196 403 -197 52 0 18 -17 -60 -30 -107 -18 -245 -16 -322 5 -35 9
-98 34 -140 55 -251 126 -408 359 -437 648 -7 63 -18 87 -36 76 -11 -7 -10
-149 3 -240 23 -166 106 -380 190 -491 82 -110 223 -229 342 -289 26 -13 47
-26 47 -28 0 -1 -28 1 -62 6 -133 18 -284 84 -380 166 -98 84 -218 220 -242
275 -60 135 -91 338 -83 537 6 146 23 240 64 365 31 96 128 325 184 437 52
103 106 264 121 363 16 105 26 71 24 -83 0 -67 2 -122 5 -122 7 0 22 55 39
138 21 108 6 342 -21 342 -6 0 -7 6 -4 13 3 6 -2 2 -11 -10 -20 -28 -34 -29
-34 -4 0 10 -10 50 -21 87 -16 51 -24 65 -31 54 -81 -136 -76 -122 -71 -212 6
-98 -9 -231 -38 -326 -12 -37 -62 -154 -111 -261 -187 -402 -228 -555 -229
-847 l0 -156 -69 92 c-177 240 -362 391 -584 480 -151 61 -373 92 -530 76 -76
-9 -71 2 -45 -99 l10 -38 82 7 c153 12 327 -25 504 -106 219 -102 334 -217
578 -585 171 -258 277 -389 390 -485 205 -174 403 -251 645 -251 194 -1 377
65 530 188 66 53 96 86 189 203 20 25 20 25 0 -48 -33 -123 -98 -250 -161
-313 -98 -99 -248 -180 -460 -248 -219 -70 -433 -61 -636 25 -205 88 -307 166
-466 356 -74 88 -141 191 -299 459 -206 351 -438 533 -724 569 -119 15 -116
19 -82 -112 16 -61 29 -112 29 -114 0 -2 15 -4 33 -4 47 -1 162 -44 224 -85
70 -47 158 -135 208 -210 22 -33 83 -163 136 -290 109 -260 128 -301 210 -437
33 -54 59 -101 59 -106 0 -5 -28 -12 -62 -16 -76 -8 -164 -47 -238 -108 -55
-44 -55 -44 -172 -56 -159 -17 -331 -62 -453 -121 -286 -138 -511 -404 -599
-711 -50 -177 -55 -402 -11 -571 48 -186 212 -420 385 -551 79 -60 222 -130
310 -152 207 -52 462 -14 627 93 182 119 303 341 303 560 0 124 -68 291 -147
360 -61 55 -155 100 -235 113 -56 10 -75 9 -133 -7 -100 -27 -155 -83 -155
-158 0 -45 32 -73 95 -81 28 -4 68 -16 91 -27 109 -52 117 -225 14 -328 -54
-53 -112 -74 -206 -75 -73 0 -89 4 -150 34 -159 78 -274 263 -274 440 0 131
60 279 150 371 177 180 385 221 655 129 92 -31 347 -148 357 -164 4 -6 12 -42
19 -81 42 -254 148 -494 303 -686 l45 -55 -92 -65 c-103 -72 -300 -258 -387
-364 -173 -213 -278 -427 -317 -650 -21 -125 -13 -368 16 -480 55 -207 205
-428 376 -555 79 -59 225 -125 319 -145 109 -24 311 -17 411 15 191 60 342
180 423 336 53 104 72 177 72 284 0 160 -42 262 -155 376 -76 77 -138 108
-238 120 -113 13 -243 -44 -285 -126 -43 -85 8 -156 127 -174 57 -9 78 -21
101 -59 24 -39 25 -75 4 -125 -51 -124 -199 -177 -321 -116 -149 73 -225 273
-179 468 52 219 212 364 641 578 210 105 192 104 200 11 13 -153 69 -312 161
-459 98 -156 199 -259 434 -444 96 -76 207 -171 245 -211 177 -187 212 -405
90 -565 -36 -47 -120 -85 -188 -85 -90 0 -156 44 -208 139 -58 107 -153 40
-153 -108 0 -157 126 -310 304 -370 136 -46 353 -8 495 85 230 151 363 441
341 740 -17 226 -92 387 -339 726 -234 322 -287 437 -287 634 0 202 74 345
245 474 148 111 241 198 354 331 149 173 215 235 291 273 58 29 74 32 150 32
150 -1 232 -54 410 -264 118 -140 225 -244 345 -336 121 -92 159 -129 206
-201 53 -82 79 -160 86 -258 15 -212 -56 -377 -296 -695 -175 -231 -240 -347
-296 -521 -23 -71 -28 -109 -32 -230 -5 -125 -2 -157 16 -235 83 -346 379
-590 696 -572 108 6 181 31 263 91 100 74 162 191 162 307 0 99 -43 159 -106
147 -10 -1 -36 -30 -58 -62 -63 -91 -104 -119 -180 -124 -188 -12 -320 173
-272 381 36 153 108 241 357 437 314 247 436 382 540 595 56 117 89 227 90
305 0 30 3 72 7 93 l7 38 162 -80 c412 -204 605 -367 664 -563 17 -57 20 -88
17 -176 -3 -91 -8 -116 -33 -170 -70 -154 -234 -223 -365 -155 -75 39 -112 89
-117 155 -6 83 17 112 113 140 116 33 163 95 130 171 -49 115 -235 166 -391
107 -81 -31 -198 -147 -243 -240 -102 -211 -45 -477 143 -666 66 -66 98 -89
175 -128 134 -66 227 -87 375 -87 87 0 141 5 196 20 309 80 578 364 663 701
82 326 13 674 -199 990 -117 175 -320 382 -498 507 -68 48 -76 57 -65 72 7 9
29 36 49 61 144 180 235 386 275 625 8 50 17 98 20 108 10 32 321 172 448 202
70 17 230 19 305 5 131 -25 290 -151 354 -282 45 -92 56 -141 57 -249 0 -154
-51 -270 -171 -389 -41 -41 -90 -83 -109 -94 l-33 -19 7 109 7 109 -30 34
c-16 18 -28 38 -26 45 2 6 6 23 9 38 5 21 16 30 56 43 84 28 108 78 135 278
17 126 13 147 -26 147 -21 0 -23 -5 -45 -130 -23 -132 -27 -140 -65 -140 -30
0 -31 1 -25 33 39 214 39 277 1 277 -25 0 -35 -28 -56 -158 l-22 -132 -29 0
c-17 0 -31 6 -35 16 -3 9 3 69 14 135 16 98 17 123 7 137 -10 13 -17 15 -31 6
-25 -16 -89 -286 -79 -338 7 -34 51 -88 104 -126 16 -12 19 -22 15 -48 -4 -26
-14 -37 -44 -53 -48 -24 -62 -52 -83 -159 -24 -121 -27 -133 -31 -129 -2 3
-13 54 -25 114 -23 118 -34 136 -92 166 -38 19 -38 20 -38 79 l0 60 39 0 c60
0 75 21 68 93 -13 145 -155 337 -250 337 -47 0 -103 -80 -127 -182 -14 -64
-12 -188 5 -246 18 -60 40 -76 82 -61 l29 10 0 84 c-1 55 3 88 12 96 22 23 35
-7 42 -103 4 -51 11 -110 15 -130 6 -32 3 -42 -19 -69 -35 -41 -35 -85 -1
-236 8 -33 -8 -28 -61 18 -38 33 -52 39 -73 34 -44 -11 -54 -25 -46 -70 27
-173 198 -329 445 -407 65 -20 95 -23 220 -22 131 0 153 3 230 28 158 52 280
128 404 252 156 156 252 358 286 602 12 90 -1 275 -26 377 -45 180 -134 341
-273 494 -197 218 -465 345 -780 372 l-125 10 -70 54 c-90 68 -153 96 -233
103 -63 5 -63 5 -49 27 50 76 185 344 240 479 126 301 193 414 307 511 227
194 575 174 787 -43 64 -66 99 -125 128 -217 54 -171 40 -337 -41 -498 -37
-72 -48 -108 -61 -193 -13 -80 -22 -113 -40 -133 -28 -34 -112 -72 -222 -103
-45 -13 -82 -25 -82 -28 0 -3 35 -25 77 -49 42 -25 104 -71 139 -104 73 -67
67 -67 184 -5 202 107 362 273 463 480 58 119 84 199 102 318 59 383 -61 735
-339 997 -299 282 -762 377 -1171 242 -233 -77 -428 -226 -607 -463 -50 -67
-95 -125 -99 -130 -4 -4 -5 55 -2 131 5 118 2 161 -17 269 -35 202 -70 303
-214 615 -47 103 -97 229 -111 280 -64 237 -33 432 92 586 30 36 42 60 38 71
-10 27 -79 132 -87 132 -13 0 -110 -116 -144 -173 -41 -66 -41 -97 -1 -53 l27
29 -30 -66 c-16 -37 -38 -107 -47 -156 l-18 -89 -10 41 c-41 168 -81 -157 -41
-336 10 -43 21 -77 26 -77 5 0 11 62 12 138 2 75 6 130 9 122 4 -8 14 -55 23
-104 19 -103 75 -256 174 -476 146 -323 182 -463 182 -710 0 -237 -39 -431
-109 -542 -70 -110 -253 -268 -375 -324 -65 -30 -197 -64 -245 -64 -35 1 -34
1 36 39 137 72 262 191 357 338 83 129 129 255 157 438 22 141 21 251 -6 430
-15 96 -60 240 -50 160 23 -194 27 -265 22 -370 -15 -302 -125 -512 -346 -662
-155 -104 -385 -150 -569 -113 -67 14 -91 30 -44 30 17 0 61 10 98 21 202 62
367 203 469 399 77 150 90 214 90 435 -1 208 -5 234 -80 480 -20 65 -50 187
-67 270 -26 126 -31 173 -31 295 -1 162 9 227 59 381 56 173 182 345 349 475
l40 31 -20 63 -21 63 -104 -79 c-236 -180 -386 -440 -430 -749 -13 -93 -13
-294 1 -392 12 -89 73 -340 119 -488 62 -199 75 -416 35 -570 -65 -248 -284
-464 -503 -497 -125 -18 -254 22 -323 99 -40 46 -89 146 -89 182 0 100 70 282
239 621 211 422 290 722 291 1095 1 603 -269 1159 -728 1501 -118 87 -367 211
-507 252 -217 63 -496 92 -695 72z m495 -170 c308 -66 577 -207 708 -370 82
-103 183 -272 226 -380 72 -182 127 -460 137 -699 8 -172 -6 -327 -42 -491
-30 -134 -134 -456 -209 -650 -77 -198 -131 -370 -162 -516 -24 -114 -27 -150
-27 -319 0 -174 2 -198 27 -288 34 -127 104 -290 159 -368 24 -34 71 -106 104
-159 34 -54 82 -125 107 -157 157 -201 440 -387 689 -452 160 -41 377 -50 526
-22 23 5 42 7 42 5 0 -2 -22 -59 -49 -126 -26 -68 -55 -141 -63 -163 -12 -35
-19 -41 -53 -47 -72 -13 -312 -9 -410 7 -197 31 -464 142 -646 267 -107 72
-284 242 -354 338 -74 103 -143 225 -147 262 -5 52 -31 42 -46 -17 -52 -209
-28 -522 63 -822 52 -170 178 -382 300 -506 128 -129 231 -196 385 -248 89
-31 103 -33 235 -33 125 0 148 3 220 27 148 49 293 157 374 276 55 81 133 240
176 361 20 58 53 150 73 205 116 327 271 503 480 546 46 10 75 10 121 2 54
-11 118 -40 107 -50 -2 -2 -34 -11 -71 -18 -82 -17 -139 -50 -203 -115 -91
-92 -145 -228 -182 -460 -12 -74 -30 -189 -41 -255 -54 -330 -160 -550 -364
-750 -226 -223 -486 -327 -816 -327 -202 0 -306 20 -504 99 -219 87 -376 192
-536 357 -177 182 -322 392 -419 607 -47 105 -130 343 -130 374 0 11 26 -29
56 -90 111 -217 302 -487 457 -644 376 -382 727 -553 1142 -554 180 -1 291 25
450 103 188 93 314 200 437 375 79 113 101 160 88 185 -6 11 -15 20 -20 20 -5
0 -42 -48 -82 -107 -264 -387 -664 -556 -1107 -466 -88 17 -198 59 -301 115
-223 119 -392 273 -582 531 -148 202 -312 585 -382 894 -39 176 -40 186 -19
179 86 -27 183 -46 211 -41 46 9 100 59 113 107 5 22 8 45 6 52 -3 6 1 43 9
81 18 92 17 266 0 333 -15 56 -39 99 -65 119 -42 32 -179 2 -288 -64 -85 -51
-97 -54 -144 -38 -55 20 -113 19 -171 -2 -46 -16 -47 -16 -86 9 -145 96 -286
134 -348 93 -14 -9 -38 -42 -52 -73 -26 -56 -27 -61 -26 -247 1 -174 3 -194
24 -243 14 -33 38 -64 64 -85 37 -29 46 -32 106 -31 39 1 87 10 119 23 30 11
56 19 58 17 5 -5 -66 -315 -93 -405 -52 -171 -177 -448 -274 -606 -150 -245
-362 -450 -604 -584 -163 -90 -290 -130 -479 -151 -325 -36 -664 116 -882 395
-146 187 -219 346 -285 623 -23 95 -45 172 -50 172 -4 0 -11 -8 -15 -17 -5
-13 -14 8 -31 67 -55 186 -97 265 -184 343 -54 48 -124 80 -203 92 -26 4 -49
11 -52 15 -2 4 14 16 38 26 31 14 64 19 132 19 77 -1 99 -5 150 -28 89 -41
162 -103 228 -191 75 -102 130 -218 207 -441 73 -212 158 -395 224 -483 92
-121 255 -225 409 -262 389 -94 800 145 1025 595 90 180 141 416 149 685 6
187 -11 328 -42 359 -19 20 -24 13 -34 -47 -15 -96 -154 -280 -350 -465 -192
-180 -440 -306 -728 -369 -79 -17 -131 -22 -268 -22 -93 0 -188 5 -209 10 -37
9 -40 13 -62 77 -13 38 -42 109 -65 158 -22 50 -39 92 -38 94 2 2 27 -1 54 -7
94 -19 339 -13 455 11 395 83 723 344 913 726 24 50 54 119 65 155 64 194 88
443 58 605 -39 211 -57 258 -255 655 -168 336 -234 535 -276 835 -57 397 45
864 259 1184 158 236 325 395 563 534 127 75 349 152 522 183 119 21 449 12
576 -16z m-3980 -2387 c41 -19 43 -28 13 -60 -26 -27 -49 -29 -71 -5 -13 15
-14 21 -2 50 16 37 14 37 60 15z m7930 -443 c212 -54 347 -130 490 -274 127
-128 197 -252 247 -432 18 -66 21 -107 22 -254 1 -154 -2 -184 -22 -254 -31
-109 -73 -204 -125 -284 -45 -70 -152 -192 -169 -192 -5 0 7 28 26 63 38 70
124 296 152 402 13 51 18 107 19 205 0 217 -44 348 -175 512 -120 151 -235
225 -425 274 -80 20 -125 25 -225 26 -134 1 -187 -8 -289 -49 -219 -87 -366
-241 -590 -615 -200 -332 -344 -514 -476 -603 -78 -52 -147 -82 -152 -67 -3 6
-16 12 -31 12 -25 0 -25 0 -6 -16 19 -15 18 -15 -4 -11 -12 3 -20 1 -16 -4 3
-5 -8 -9 -25 -9 -16 0 -32 6 -35 13 -3 6 -4 0 -1 -16 3 -15 2 -26 -2 -25 -5 0
-21 -4 -36 -10 -15 -7 -31 -11 -35 -11 -4 1 -9 1 -12 -1 -23 -8 -60 -7 -60 3
0 7 -5 4 -11 -5 -12 -22 -39 -23 -39 -2 0 8 -4 12 -10 9 -5 -3 -10 -2 -10 4 0
6 -7 8 -15 5 -8 -4 -13 -10 -10 -14 3 -4 -3 -14 -13 -21 -15 -13 -16 -12 -4 3
9 11 10 18 2 23 -6 3 -7 11 -4 17 4 6 -2 6 -15 -1 -14 -8 -21 -8 -21 -1 0 5
-5 10 -11 10 -5 0 -8 -4 -5 -8 3 -5 -1 -9 -9 -9 -8 0 -15 3 -15 7 0 4 -7 7
-15 8 -8 1 -22 3 -30 4 -13 1 -12 4 3 18 9 10 21 15 26 12 5 -3 6 0 2 6 -4 7
-17 8 -34 3 -29 -9 -62 6 -62 28 0 6 -7 11 -16 11 -8 0 -12 5 -9 10 3 6 -1 13
-10 16 -14 6 -14 8 2 21 16 13 16 14 1 9 -10 -3 -20 0 -24 6 -4 6 -3 8 4 4 6
-3 14 -1 17 5 5 7 -1 10 -16 8 -13 -1 -68 8 -122 21 -103 24 -127 37 -37 20
69 -13 240 -13 316 1 85 15 178 46 264 89 220 111 393 287 591 602 164 260
307 433 433 522 130 92 308 166 464 191 115 19 292 12 397 -15z m-855 -750
c-17 -33 -62 -138 -101 -232 -93 -226 -198 -432 -269 -526 -64 -85 -316 -329
-367 -355 -50 -26 -195 -47 -325 -47 -125 0 -277 24 -362 58 l-44 17 116 1
c170 1 289 29 457 109 299 143 462 314 753 793 75 122 157 242 167 242 3 0 -8
-27 -25 -60z m-6617 -305 c119 -193 184 -280 301 -403 130 -136 330 -264 501
-321 100 -33 258 -61 347 -61 104 -1 89 -12 -60 -45 -154 -34 -247 -39 -377
-21 -200 29 -199 28 -360 189 -79 78 -170 179 -203 224 -75 103 -162 272 -258
504 -41 99 -85 202 -99 229 -14 27 -25 53 -25 57 0 12 122 -173 233 -352z
m4462 15 c3 -5 1 -10 -4 -10 -6 0 -11 5 -11 10 0 6 2 10 4 10 3 0 8 -4 11 -10z
m-1608 -124 c67 -31 151 -87 157 -103 11 -27 -7 -42 -60 -53 -87 -18 -85 -46
4 -57 63 -7 69 -29 20 -67 -52 -38 -156 -88 -199 -93 -37 -5 -40 -4 -56 33
-12 30 -16 70 -16 174 0 166 7 190 60 190 21 0 61 -11 90 -24z m823 -11 c11
-22 15 -65 14 -165 -1 -210 -22 -232 -159 -164 -99 50 -150 91 -134 110 6 8
24 14 40 14 39 0 79 17 79 34 0 16 -13 21 -77 31 -88 14 -56 61 91 135 94 47
124 48 146 5z m1169 -167 c37 -16 53 -26 36 -22 -16 3 -52 8 -80 9 -27 2 -53
3 -57 4 -4 1 -22 15 -40 31 -18 17 -40 30 -50 30 -11 0 -15 5 -12 15 4 8 10
12 15 9 15 -9 10 8 -8 29 -10 11 16 -2 56 -29 41 -26 104 -61 140 -76z m-1596
101 c33 -18 37 -28 37 -94 0 -33 -4 -65 -8 -71 -22 -34 -102 -45 -139 -19 -26
18 -36 71 -24 125 11 50 11 50 53 60 48 11 57 11 81 -1z m-946 -501 c-3 -8 -6
-5 -6 6 -1 11 2 17 5 13 3 -3 4 -12 1 -19z m-2396 -167 c85 -27 113 -50 148
-120 23 -45 71 -179 71 -197 0 -12 -60 0 -177 36 -163 48 -276 64 -413 57
-130 -7 -211 -26 -315 -77 -92 -44 -157 -96 -233 -184 -145 -166 -208 -348
-200 -569 6 -142 38 -245 108 -350 150 -225 388 -332 635 -286 103 19 217 91
227 144 6 31 -1 31 -38 3 -19 -14 -14 -6 14 24 32 34 50 44 69 42 13 -1 22 0
20 3 -3 2 3 13 13 23 42 42 58 210 27 280 -14 32 -15 33 -17 10 -1 -21 -4 -19
-18 17 -34 84 -78 132 -150 166 l-67 32 39 3 c86 7 204 -48 260 -121 86 -113
95 -299 21 -455 -100 -211 -356 -343 -605 -311 -317 39 -593 287 -696 624 -25
82 -28 104 -28 250 0 146 3 168 28 249 111 364 391 623 763 705 131 29 136 30
298 26 119 -2 164 -7 216 -24z m7114 0 c188 -47 349 -136 480 -266 177 -175
270 -360 296 -593 35 -313 -72 -579 -320 -794 -221 -192 -518 -236 -766 -113
-38 19 -83 45 -100 59 l-30 25 65 -21 c50 -17 89 -22 170 -21 179 0 321 61
474 203 74 69 108 89 113 66 1 -9 23 -26 34 -26 15 0 100 139 119 193 41 123
50 314 19 458 -22 104 -106 256 -179 324 -26 24 -31 26 -26 10 3 -11 7 -36 8
-55 1 -20 16 -56 35 -84 18 -26 33 -53 33 -58 0 -6 -18 17 -41 51 -57 85 -177
193 -263 235 -74 36 -175 65 -236 67 -28 0 -31 2 -15 8 11 5 27 6 35 3 10 -3
12 -2 5 6 -14 15 -249 37 -387 36 -98 -1 -118 1 -118 13 0 57 71 245 102 271
45 36 353 39 493 3z m-629 -80 c-12 -13 -14 -21 -6 -26 12 -7 3 -46 -12 -56
-5 -3 -10 -10 -9 -15 0 -5 -8 -8 -19 -7 -12 2 -22 -8 -30 -28 -7 -16 -15 -28
-17 -25 -9 8 48 120 74 149 30 30 46 38 19 8z m-4141 -77 c-26 -116 -55 -160
-160 -247 -258 -214 -537 -319 -915 -342 -113 -7 -286 7 -329 28 -16 7 -37 34
-54 70 -16 32 -27 60 -25 62 2 1 55 -2 118 -8 273 -25 617 51 910 201 125 64
333 201 410 270 30 28 56 46 58 42 2 -4 -4 -39 -13 -76z m2093 -80 c384 -259
770 -376 1172 -354 63 3 116 5 118 5 1 -1 -13 -31 -30 -66 l-33 -64 -60 -12
c-173 -34 -411 -24 -612 27 -235 59 -502 201 -650 345 -53 52 -79 112 -98 225
l-8 45 44 -38 c24 -20 95 -71 157 -113z m-1284 -215 c-89 -274 -173 -434 -351
-670 -170 -226 -329 -364 -554 -483 -262 -138 -494 -188 -764 -165 -132 12
-226 36 -350 88 -142 61 -248 133 -360 245 -196 198 -291 388 -346 694 -21
120 -21 163 0 65 31 -139 127 -354 206 -462 131 -178 337 -344 517 -417 226
-93 541 -90 815 7 453 160 883 578 1173 1141 30 58 56 105 58 103 2 -1 -18
-67 -44 -146z m4478 -579 c-6 -43 -12 -37 -12 13 0 25 4 37 8 29 5 -7 7 -26 4
-42z m-561 -316 c10 -13 10 -29 0 -92 -20 -118 -31 -144 -65 -154 -17 -4 -32
-6 -34 -3 -6 6 30 228 40 248 11 21 41 22 59 1z m-323 -6 c12 -16 64 -229 57
-236 -3 -3 -23 0 -44 7 -36 10 -40 15 -49 59 -16 75 -25 160 -17 171 9 15 40
14 53 -1z m738 -85 c-10 -10 -19 5 -10 18 6 11 8 11 12 0 2 -7 1 -15 -2 -18z
m-1275 -471 c235 -244 347 -449 394 -719 72 -412 -125 -810 -480 -968 -333
-149 -758 21 -850 339 -21 71 -16 195 10 271 35 105 122 192 221 221 61 17
106 12 155 -18 l34 -21 -62 -13 c-73 -15 -97 -26 -140 -67 -30 -28 -49 -27
-21 1 7 7 8 12 2 12 -17 0 -60 -52 -84 -99 -45 -89 -22 -263 48 -366 39 -56
121 -119 189 -145 88 -34 239 -39 331 -11 185 56 363 252 416 459 20 76 21
274 2 374 -46 236 -188 466 -403 650 -45 39 -80 75 -77 82 8 21 69 55 132 72
66 19 75 32 45 68 -17 19 -16 19 13 -2 17 -11 73 -65 125 -120z m-5696 101 c0
-16 -4 -31 -8 -34 -5 -4 8 -9 30 -13 53 -10 140 -53 148 -74 4 -12 -3 -24 -22
-41 -169 -141 -265 -248 -339 -378 -96 -168 -136 -314 -137 -498 -1 -135 14
-209 65 -312 62 -127 198 -257 334 -320 113 -52 321 -42 429 22 94 55 168 159
200 282 19 73 19 118 -1 176 -26 78 -141 188 -180 173 -8 -3 -13 -2 -10 3 3 4
-25 9 -61 10 -37 1 -69 4 -71 6 -11 10 69 38 123 43 151 12 274 -111 306 -306
40 -240 -131 -476 -401 -556 -139 -42 -331 -28 -465 33 -125 57 -258 169 -335
284 -172 258 -202 598 -80 914 32 85 104 210 180 315 46 64 272 298 287 298 5
0 9 -12 8 -27z m1648 -5 c-6 -7 -16 -30 -23 -51 -7 -24 -16 -35 -23 -30 -21
13 -46 10 -52 -5 -5 -13 -7 -13 -18 2 -7 9 -22 18 -35 19 -12 0 -22 4 -22 8 0
10 43 20 50 11 10 -14 80 1 80 18 0 4 -10 6 -22 4 -13 -3 -3 4 22 15 54 24 55
24 43 9z m-88 -38 c3 -6 -1 -7 -9 -4 -18 7 -21 14 -7 14 6 0 13 -4 16 -10z
m-760 -35 l100 -23 -80 -37 c-405 -189 -629 -318 -737 -425 -85 -85 -182 -234
-211 -325 -31 -99 -30 -293 1 -379 31 -83 74 -146 143 -211 33 -30 57 -55 52
-55 -22 0 -123 69 -169 115 -93 93 -144 226 -144 380 0 360 327 767 753 936
46 19 155 47 182 48 6 0 55 -11 110 -24z m4138 9 c157 -48 324 -132 438 -220
166 -127 340 -370 395 -549 23 -75 26 -283 5 -365 -37 -149 -129 -263 -255
-315 -38 -16 -38 -16 26 48 71 71 128 174 147 265 15 75 13 237 -4 302 -32
120 -126 267 -227 353 -101 86 -274 189 -518 309 -135 67 -251 126 -258 131
-10 8 9 16 75 33 110 27 113 27 176 8z m-3340 -106 c-30 -272 48 -483 301
-813 171 -224 241 -342 292 -495 25 -77 28 -98 28 -235 1 -139 -1 -156 -27
-230 -27 -77 -92 -190 -124 -217 -11 -9 -10 -1 6 29 26 52 58 182 71 286 18
149 -23 322 -109 466 -43 73 -142 202 -327 430 -67 82 -138 174 -158 205 -94
147 -144 283 -153 420 -9 134 -6 139 70 160 34 9 69 22 77 27 13 9 12 10 -2 5
-10 -3 -20 0 -24 6 -5 8 4 9 29 5 20 -3 36 -3 36 1 -2 15 1 22 12 22 7 0 8
-23 2 -72z m2492 -10 c68 -20 68 -20 63 -143 -4 -94 -10 -121 -37 -190 -66
-162 -162 -309 -350 -530 -137 -162 -230 -293 -281 -400 -64 -132 -75 -184
-74 -335 0 -133 15 -215 59 -324 l24 -61 -30 35 c-42 49 -95 162 -115 245 -10
44 -16 110 -16 175 1 223 83 417 281 670 166 211 264 375 313 523 31 95 33
111 33 238 l0 137 45 -14 c25 -8 63 -19 85 -26z m-2794 -318 c88 -220 177
-349 408 -594 257 -272 365 -463 386 -686 15 -159 -55 -347 -174 -471 -79 -81
-114 -94 -251 -94 -80 0 -102 4 -140 24 -51 27 -123 81 -117 88 3 2 28 -3 56
-13 77 -25 201 -16 275 20 73 36 155 111 189 174 36 66 61 190 54 267 -20 209
-126 353 -452 613 -191 153 -313 270 -375 362 -58 86 -120 209 -120 240 0 45
75 145 135 179 11 6 33 10 50 8 28 -2 32 -8 76 -117z m3098 105 c35 -18 94
-85 117 -133 16 -34 16 -37 -11 -101 -71 -176 -192 -315 -460 -530 -93 -75
-198 -162 -232 -195 -230 -214 -298 -464 -187 -686 42 -83 103 -141 192 -183
57 -27 81 -33 158 -35 77 -3 100 0 140 18 l49 21 -35 -36 c-19 -20 -60 -48
-90 -63 -49 -24 -67 -27 -155 -27 -133 0 -177 17 -249 97 -61 67 -125 182
-152 273 -39 134 -15 325 61 476 77 152 136 230 345 454 196 211 296 359 367
545 20 52 40 101 46 108 13 16 62 15 96 -3z m-3794 -685 c10 -11 16 -20 13
-20 -3 0 -13 9 -23 20 -10 11 -16 20 -13 20 3 0 13 -9 23 -20z"/>
<path d="M14849 12007 c-120 -41 -203 -132 -235 -257 -27 -107 -4 -205 71
-303 l45 -57 0 -119 c0 -66 3 -126 6 -135 10 -27 35 -18 129 44 50 33 94 60
99 60 5 0 56 -30 113 -66 57 -37 107 -63 111 -59 4 4 7 53 7 109 l0 102 47 53
c54 59 100 181 70 181 -5 0 -5 23 -2 51 35 271 -213 484 -461 396z m216 -97
c90 -38 149 -132 148 -235 -1 -146 -110 -255 -256 -255 -117 0 -211 69 -244
179 -46 157 57 308 227 334 35 5 78 -3 125 -23z m187 -453 c-22 -30 -42 -65
-45 -78 -4 -22 -4 -22 -6 4 0 18 8 38 25 55 14 15 33 39 42 54 9 15 18 25 20
23 3 -2 -13 -29 -36 -58z"/>
<path d="M15190 11091 c0 -4 -12 -6 -27 -4 l-28 5 23 -17 c13 -9 29 -14 37
-11 17 6 21 36 5 36 -5 0 -10 -4 -10 -9z"/>
<path d="M13207 10950 c-61 -16 -117 -49 -175 -103 -50 -48 -82 -93 -82 -115
0 -25 36 -21 77 8 56 41 135 75 206 90 74 15 159 2 269 -42 83 -33 108 -30
108 15 0 32 -81 102 -147 127 -65 26 -194 35 -256 20z"/>
<path d="M14749 10947 c-100 -29 -210 -119 -189 -156 16 -32 39 -32 110 -1
129 57 213 62 336 20 32 -11 82 -36 110 -55 49 -34 94 -46 94 -25 0 46 -112
158 -193 196 -71 32 -195 42 -268 21z"/>
<path d="M14704 10719 c-59 -31 -122 -89 -156 -144 -21 -34 -22 -45 -7 -45 5
0 7 6 3 13 -5 8 -2 8 9 -2 9 -7 17 -10 17 -7 0 4 9 2 19 -4 14 -7 23 -6 33 3
13 12 102 59 112 59 3 0 31 6 62 14 32 7 61 11 66 8 5 -3 17 5 28 18 11 13 19
18 20 13 0 -6 -5 -16 -11 -22 -7 -7 -6 -12 6 -17 9 -3 13 -2 10 4 -3 6 1 10
11 10 13 0 14 3 5 13 -6 8 -8 17 -4 20 3 4 -5 6 -20 5 -14 -1 -23 -6 -21 -10
3 -4 -2 -8 -10 -8 -9 0 -16 6 -16 13 0 7 -9 18 -21 25 -12 8 -18 9 -14 3 3 -6
-4 -15 -17 -20 -13 -6 -17 -10 -10 -10 6 -1 12 -6 12 -13 0 -21 -23 9 -25 32
-1 16 1 17 12 8 11 -9 13 -8 11 3 -2 8 -10 20 -18 26 -13 11 -13 12 3 7 13 -5
17 -1 17 15 0 30 -36 27 -106 -10z m127 -72 c-10 -9 -11 -8 -5 6 3 10 9 15 12
12 3 -3 0 -11 -7 -18z"/>
<path d="M14946 10615 c-19 -15 -19 -15 3 -15 12 0 20 4 17 9 -4 5 0 12 6 14
7 3 9 6 3 6 -5 0 -19 -6 -29 -14z"/>
<path d="M15000 10604 c0 -8 5 -12 10 -9 6 3 10 10 10 16 0 5 -4 9 -10 9 -5 0
-10 -7 -10 -16z"/>
<path d="M13259 10590 c-59 -10 -119 -41 -194 -99 -51 -39 -66 -46 -105 -45
-25 0 -60 4 -77 8 -31 8 -33 7 -33 -17 0 -44 116 -126 178 -127 15 0 40 19 75
56 66 72 131 104 212 104 67 0 146 -31 180 -70 l20 -23 -20 7 c-35 14 -83 19
-110 12 l-26 -7 30 -28 c36 -34 40 -67 10 -105 -25 -32 -57 -33 -94 -4 -27 21
-28 21 -42 2 -10 -12 -13 -34 -10 -63 12 -114 140 -176 247 -119 36 20 51 36
77 88 l32 64 11 -30 c6 -16 21 -69 32 -119 28 -122 27 -120 38 -109 18 18 30
136 20 203 -12 86 -53 205 -87 254 -86 124 -228 189 -364 167z"/>
<path d="M14759 10587 c-61 -17 -141 -70 -185 -120 -80 -94 -130 -257 -121
-397 3 -47 8 -93 12 -103 13 -33 30 -11 37 49 9 67 44 190 57 198 5 3 12 -10
15 -29 8 -40 55 -99 97 -121 37 -19 113 -18 155 2 66 31 104 112 83 173 -11
32 -23 39 -34 20 -13 -20 -54 -29 -79 -17 -47 21 -56 87 -19 130 13 14 12 17
-5 22 -11 4 -39 2 -63 -3 -24 -5 -45 -8 -47 -6 -2 1 12 15 30 29 121 92 270
72 375 -50 38 -44 53 -54 78 -54 40 0 129 44 155 78 26 33 23 68 -5 64 -11 -2
-45 -4 -75 -5 -52 -2 -59 1 -115 45 -116 91 -240 125 -346 95z"/>
<path d="M14615 9736 c-20 -14 -19 -15 10 -46 30 -31 30 -32 10 -47 -43 -33
-185 -94 -275 -118 -262 -69 -570 -44 -834 70 l-39 16 33 34 c28 29 31 37 20
50 -34 41 -147 -12 -186 -87 -16 -30 -19 -94 -5 -102 5 -3 22 8 40 24 17 17
34 30 39 30 18 0 74 -63 124 -141 93 -143 201 -230 348 -280 81 -27 221 -36
299 -19 76 16 193 72 256 120 71 55 150 155 209 268 28 53 56 97 62 99 7 2 22
-12 34 -32 16 -26 28 -35 44 -33 17 2 21 9 20 39 -1 50 -37 104 -87 133 -57
33 -98 40 -122 22z m-945 -301 c227 -73 522 -75 763 -4 38 11 72 18 75 14 3
-3 -28 -38 -69 -78 -93 -92 -172 -132 -287 -149 -154 -21 -307 26 -460 142
-107 82 -142 113 -117 105 11 -3 54 -17 95 -30z"/>
<path d="M14230 8993 c-54 -18 -215 -20 -284 -4 -27 6 -51 9 -55 5 -10 -10 37
-42 97 -64 94 -36 220 -14 276 49 26 29 19 31 -34 14z"/>
<path d="M14544 6875 c-4 -8 6 -32 21 -53 39 -52 109 -116 113 -103 2 6 8 9
13 5 30 -18 -15 70 -62 120 -42 47 -75 58 -85 31z"/>
<path d="M15035 6490 c7 -11 -35 -51 -47 -44 -14 9 -9 -6 10 -24 27 -28 72
-54 85 -49 6 2 20 -6 29 -17 10 -12 18 -16 17 -11 -4 21 13 44 28 38 26 -10
-2 31 -48 70 -37 32 -86 56 -74 37z"/>
<path d="M15695 6220 c-3 -6 1 -7 10 -4 11 5 14 2 9 -10 -3 -9 -1 -16 5 -16 6
0 11 9 11 20 0 21 -24 28 -35 10z"/>
<path d="M16110 8320 c0 -5 5 -10 11 -10 5 0 7 5 4 10 -3 6 -8 10 -11 10 -2 0
-4 -4 -4 -10z"/>
<path d="M16680 8300 c0 -5 7 -7 15 -4 8 4 15 8 15 10 0 2 -7 4 -15 4 -8 0
-15 -4 -15 -10z"/>
<path d="M16360 8210 c0 -5 5 -10 11 -10 5 0 7 5 4 10 -3 6 -8 10 -11 10 -2 0
-4 -4 -4 -10z"/>
<path d="M16629 8016 c-43 -30 -51 -61 -10 -40 14 8 49 14 77 14 52 0 83 18
69 40 -12 20 -98 11 -136 -14z"/>
<path d="M11053 8379 c-16 -16 1 -56 40 -97 49 -52 62 -56 65 -21 3 32 -18 79
-49 110 -22 22 -40 24 -56 8z"/>
<path d="M11423 8039 c-13 -4 -23 -12 -23 -17 0 -12 21 -29 40 -34 8 -2 17 -6
20 -10 5 -6 42 -15 110 -25 34 -6 34 -6 19 18 -30 46 -125 85 -166 68z"/>
<path d="M17830 7600 c0 -6 7 -10 15 -10 8 0 15 2 15 4 0 2 -7 6 -15 10 -8 3
-15 1 -15 -4z"/>
<path d="M18281 6410 c-13 -11 -19 -20 -14 -20 6 0 18 9 28 20 23 25 17 25
-14 0z"/>
<path d="M18100 6270 c0 -5 -17 -7 -37 -4 -25 3 -52 -3 -82 -17 -25 -12 -76
-32 -114 -44 -70 -24 -84 -31 -76 -39 8 -9 174 32 241 59 63 25 106 55 79 55
-6 0 -11 -4 -11 -10z"/>
<path d="M12742 7488 c-75 -16 -152 -118 -89 -118 24 0 142 84 142 101 0 5 7
14 15 19 12 8 11 10 -5 9 -11 -1 -39 -5 -63 -11z"/>
<path d="M12120 7284 c-36 -15 -50 -30 -50 -51 0 -9 20 -13 65 -13 41 0 65 4
65 11 0 6 7 8 16 5 8 -3 12 -2 9 4 -3 6 -1 10 5 10 6 0 10 10 8 23 -2 18 -10
22 -43 24 -22 2 -56 -4 -75 -13z"/>
<path d="M15345 7490 c3 -5 0 -10 -7 -10 -21 -1 52 -57 120 -91 48 -25 65 -30
75 -20 20 20 -19 75 -73 105 -47 25 -128 37 -115 16z"/>
<path d="M15990 7290 c8 -5 10 -10 5 -10 -6 0 -16 -9 -22 -20 -10 -16 -10 -18
1 -14 7 3 18 -1 24 -9 7 -8 26 -12 48 -10 66 5 70 33 8 59 -40 17 -88 20 -64
4z"/>
<path d="M13546 6845 c-11 -8 -15 -15 -9 -15 6 0 16 7 23 15 16 19 11 19 -14
0z"/>
<path d="M13512 6804 c-7 -8 -8 -14 -3 -14 10 0 25 19 20 25 -2 1 -10 -3 -17
-11z"/>
<path d="M13101 6474 c-66 -33 -124 -87 -119 -111 6 -31 57 -27 117 9 65 40
93 74 85 106 -8 28 -18 28 -83 -4z"/>
<path d="M12445 6220 c-7 -11 2 -30 13 -30 4 0 8 9 8 20 0 21 -11 26 -21 10z"/>
<path d="M11850 5961 c-74 -23 -115 -59 -105 -91 9 -29 39 -25 122 14 81 39
94 53 68 73 -20 14 -46 15 -85 4z"/>
<path d="M11386 5669 c-33 -26 -38 -76 -6 -59 17 9 19 8 13 -7 -6 -16 -5 -16
10 -4 20 16 5 43 -19 34 -8 -3 -14 0 -14 7 0 6 4 9 9 6 5 -3 16 5 25 19 20 30
17 31 -18 4z"/>
<path d="M16234 5955 c-8 -20 2 -33 46 -55 46 -24 54 -25 47 -6 -3 8 3 22 15
32 20 19 20 19 -9 31 -39 17 -92 16 -99 -2z"/>
<path d="M12760 5871 c-11 -21 -14 -74 -4 -84 3 -3 17 5 30 18 21 21 22 27 13
54 -13 36 -24 39 -39 12z"/>
<path d="M12894 5415 c-7 -18 38 -103 83 -155 36 -42 69 -52 80 -23 9 24 -42
117 -88 158 -42 37 -66 44 -75 20z"/>
<path d="M13354 4783 c17 -35 30 -41 42 -21 5 8 1 9 -12 4 -15 -6 -17 -5 -6 5
15 16 16 33 2 24 -6 -4 -18 -1 -27 7 -14 12 -14 9 1 -19z"/>
<path d="M15324 5879 c-8 -17 -11 -28 -4 -24 7 4 9 -2 6 -18 -3 -17 1 -27 10
-31 9 -3 13 -10 10 -14 -6 -10 43 -36 52 -28 11 11 5 115 -7 130 -21 25 -49
19 -67 -15z"/>
<path d="M15181 5382 c-20 -21 -47 -58 -60 -84 -21 -39 -23 -49 -12 -62 11
-14 16 -14 40 -1 31 15 72 71 96 128 28 68 -8 78 -64 19z"/>
<path d="M14790 4817 c-10 -20 -10 -31 -3 -38 15 -15 29 -5 42 32 9 26 9 29
-3 20 -11 -9 -15 -9 -19 1 -3 8 -10 2 -17 -15z"/>
<path d="M16736 12158 c-112 -66 -100 -207 45 -552 66 -156 123 -254 214 -366
34 -41 71 -89 83 -107 l22 -32 -20 -33 c-11 -18 -20 -45 -20 -59 0 -27 30
-122 75 -232 l27 -67 -26 -21 c-36 -28 -76 -110 -76 -155 0 -121 101 -240 249
-294 55 -21 58 -23 85 -86 38 -86 82 -124 142 -124 94 0 159 58 159 140 0 25
-3 54 -7 65 -7 17 3 25 70 60 117 60 233 180 294 305 71 145 82 197 83 390 0
161 -1 167 -33 260 -105 301 -324 514 -640 620 -77 26 -278 58 -289 46 -2 -2
10 -32 26 -68 l29 -65 58 -7 c74 -9 219 -57 303 -101 181 -95 334 -286 391
-485 29 -104 37 -264 16 -360 -56 -270 -293 -480 -541 -480 -155 0 -275 88
-275 202 l0 32 33 -31 c63 -60 140 -80 239 -63 84 15 149 52 223 125 98 97
134 192 135 350 0 110 -26 192 -93 292 -55 82 -82 108 -169 166 -61 40 -231
108 -241 97 -2 -3 1 -36 7 -73 l11 -68 60 -24 c75 -31 157 -88 195 -135 121
-153 131 -362 25 -499 -66 -84 -67 -84 -113 27 -22 53 -63 153 -92 222 -56
137 -90 180 -140 180 -36 0 -37 3 -44 160 -10 224 -54 374 -185 634 -74 147
-92 175 -127 200 -57 39 -117 44 -168 14z m114 -101 c25 -16 50 -53 91 -133
117 -229 169 -397 184 -594 l7 -95 -32 30 c-35 34 -156 207 -189 274 -54 105
-153 387 -158 448 -8 94 26 119 97 70z m417 -1015 c7 -4 24 -46 39 -92 14 -47
48 -136 75 -199 27 -62 49 -121 49 -131 0 -23 -22 -31 -60 -24 -44 9 -75 44
-95 105 -9 30 -39 104 -66 165 -27 62 -49 118 -49 126 0 36 75 71 107 50z
m339 -849 c9 -33 -5 -55 -41 -68 -24 -8 -30 -6 -56 23 -48 54 -38 66 58 71 27
1 34 -3 39 -26z"/>
<path d="M16605 10380 c-8 -14 23 -120 35 -120 13 0 12 8 -1 69 -11 52 -23 69
-34 51z"/>
<path d="M11540 10360 c-16 -30 -29 -113 -21 -129 5 -7 11 -10 14 -5 7 11 37
128 37 143 0 18 -18 13 -30 -9z"/>
<path d="M9607 10249 c-45 -26 -42 -43 62 -428 181 -665 193 -713 188 -747 -3
-17 -2 -48 3 -68 l8 -37 -64 -29 c-92 -42 -107 -69 -100 -185 19 -294 19 -327
-3 -424 -29 -128 -31 -126 137 -125 236 2 419 49 630 160 95 51 122 70 122 86
0 11 -29 52 -66 92 -96 102 -129 157 -173 285 -30 88 -47 121 -75 150 -36 36
-37 36 -123 37 l-87 0 -14 35 c-8 19 -22 43 -32 54 -10 11 -26 52 -35 90 -8
39 -42 169 -75 290 -32 121 -84 317 -115 435 -31 118 -63 236 -71 262 -22 69
-69 95 -117 67z m612 -1343 c12 -13 19 -26 14 -29 -4 -3 -45 -12 -90 -22 -45
-9 -135 -32 -199 -51 -145 -42 -156 -43 -152 -6 3 23 11 30 54 44 66 22 315
87 335 88 8 0 26 -11 38 -24z m65 -168 c23 -65 71 -146 130 -218 l46 -55 -37
-22 c-20 -12 -42 -19 -49 -15 -7 4 -36 38 -66 76 -32 42 -54 63 -56 54 -2 -8
11 -52 27 -97 21 -58 26 -83 18 -86 -66 -22 -153 -45 -167 -45 -12 0 -26 19
-44 63 l-27 62 6 -67 c6 -60 4 -68 -14 -77 -31 -17 -69 -13 -75 7 -3 9 -8 40
-11 67 -4 28 -16 82 -28 120 l-21 70 -9 -85 c-18 -192 -22 -200 -84 -200 -34
0 -35 1 -29 33 4 17 9 105 13 195 5 155 6 162 27 167 64 13 364 89 381 96 40
16 50 10 69 -43z"/>
<path d="M11388 9963 c-26 -29 -50 -131 -28 -118 6 3 7 -1 4 -10 -5 -12 -1
-14 17 -12 19 3 27 14 38 55 13 49 9 102 -8 102 -4 0 -15 -8 -23 -17z"/>
<path d="M16750 9900 c0 -11 5 -20 10 -20 6 0 9 -5 8 -11 -2 -6 2 -13 9 -16
11 -4 9 39 -3 59 -10 15 -24 8 -24 -12z"/>
<path d="M11487 9890 c-3 -11 -1 -20 4 -20 5 0 9 9 9 20 0 11 -2 20 -4 20 -2
0 -6 -9 -9 -20z"/>
<path d="M9495 9852 c-257 -141 -435 -352 -533 -633 -86 -243 -66 -570 49
-826 94 -209 320 -433 533 -527 l59 -26 71 67 c39 38 103 86 140 108 l69 40
-79 15 c-108 22 -145 36 -193 71 l-41 29 0 99 0 98 -42 64 c-89 138 -125 268
-115 418 15 203 91 336 261 456 18 13 18 17 -9 127 -16 62 -30 115 -31 117 -5
6 -96 -49 -140 -85 -91 -73 -207 -209 -258 -304 -39 -72 -78 -241 -78 -345 -1
-129 71 -411 144 -560 l39 -80 -51 55 c-64 69 -133 171 -165 244 -61 139 -89
323 -75 494 21 246 101 412 290 603 68 69 117 108 171 138 l77 42 -15 57 c-8
31 -18 60 -21 64 -4 4 -30 -5 -57 -20z m135 -1867 c28 -14 50 -28 50 -30 0 -5
-99 42 -109 51 -12 11 15 1 59 -21z"/>
<path d="M11478 9837 c-3 -19 -2 -25 4 -19 6 6 8 18 6 28 -3 14 -5 12 -10 -9z"/>
<path d="M11306 9514 c-11 -30 -6 -135 9 -171 14 -34 16 -35 37 -21 12 8 26
28 30 44 11 38 2 111 -17 141 -18 26 -50 30 -59 7z"/>
<path d="M16794 9495 c-16 -38 -17 -57 -8 -104 4 -19 11 -28 18 -23 6 3 20 7
31 7 17 0 20 8 23 54 4 74 -4 101 -29 101 -13 0 -25 -11 -35 -35z"/>
<path d="M18117 9226 c-64 -23 -92 -53 -118 -126 l-16 -45 -65 3 c-72 3 -78 0
-96 -63 -27 -96 -132 -593 -132 -626 0 -20 6 -41 13 -47 12 -11 226 -43 546
-82 204 -25 228 -25 239 -2 6 9 13 177 17 373 8 405 17 367 -84 378 l-55 6
-12 67 c-7 36 -17 75 -23 86 -17 32 -69 70 -109 82 -47 13 -58 12 -105 -4z
m107 -87 c30 -24 56 -69 56 -99 0 -18 -6 -20 -57 -19 -64 0 -150 12 -159 22
-13 13 33 81 66 99 44 23 61 23 94 -3z m-261 -219 c-7 -48 8 -70 48 -70 29 0
32 6 41 65 4 25 41 30 146 20 l73 -7 -1 -41 c-3 -68 -3 -69 32 -65 24 2 34 9
36 23 9 60 12 65 42 65 29 0 30 -1 30 -48 0 -41 -7 -59 -51 -125 -92 -138
-209 -224 -359 -262 -77 -20 -210 -32 -210 -19 0 5 25 108 55 228 30 121 55
230 55 241 0 28 8 35 41 35 26 0 27 -2 22 -40z m-134 -517 c12 -11 9 -13 -17
-13 -24 0 -32 4 -32 18 0 26 12 35 24 20 6 -7 17 -19 25 -25z m581 -58 c0 -22
-4 -25 -32 -24 -26 1 -28 3 -9 6 13 3 26 13 28 24 7 26 13 24 13 -6z"/>
<path d="M11444 9024 c-4 -14 -2 -35 4 -47 6 -12 13 -38 16 -58 5 -28 13 -39
40 -52 39 -18 46 -15 46 25 0 38 -21 85 -54 126 -33 39 -44 40 -52 6z"/>
<path d="M16681 9034 c-32 -23 -61 -90 -61 -142 0 -41 1 -42 23 -31 32 17 77
60 93 91 19 36 18 84 -2 92 -23 9 -27 8 -53 -10z"/>
</g></svg>