<svg xmlns="http://www.w3.org/2000/svg" viewBox="113.1 54.3 455.9 492.5" width="456" height="493">
<defs><linearGradient id="body" x1="0" y1="0" x2="0" y2="1"><stop offset="0" stop-color="#FF8156"/><stop offset="1" stop-color="#E9512E"/></linearGradient></defs>

<g><path d="M 293.1 235.5 L 285.3 232.4 L 278.2 229.1 L 271.4 225.6 L 265.1 221.7 L 259.1 217.6 L 253.5 213.3 L 248.4 208.8 L 243.8 204.1 L 239.7 199.3 L 236.1 194.5 L 233.1 189.6 L 230.7 184.6 L 228.8 179.6 L 227.5 174.7 L 226.7 169.7 L 226.6 164.6 L 227.0 159.5 L 228.6 152.4 L 228.6 145.8 L 227.5 140.6 L 225.6 135.8 L 223.1 131.5 L 220.1 127.7 L 216.6 124.6 L 212.7 122.2 L 208.7 120.5 L 204.5 119.5 L 200.5 119.2 L 196.5 119.5 L 192.9 120.5 L 189.6 122.0 L 186.7 123.9 L 184.3 126.2 L 182.4 128.8 L 181.1 131.5 L 180.3 134.2 L 180.0 136.9 L 180.2 139.4 L 180.9 141.7 L 181.8 143.7 L 183.1 145.3 L 184.5 146.5 L 186.0 147.3 L 187.4 147.7 L 188.9 145.7 L 188.3 144.7 L 188.0 143.7 L 188.0 142.6 L 188.1 141.6 L 188.3 140.6 L 188.8 139.7 L 189.4 138.8 L 190.1 138.0 L 191.0 137.4 L 191.9 136.8 L 193.0 136.5 L 194.1 136.2 L 195.2 136.2 L 196.4 136.3 L 197.5 136.6 L 198.7 137.0 L 199.7 137.7 L 200.7 138.4 L 201.6 139.4 L 202.3 140.5 L 202.9 141.7 L 203.4 143.0 L 203.6 144.4 L 203.7 145.8 L 203.6 147.3 L 203.4 147.6 L 201.2 153.9 L 199.6 162.1 L 199.0 170.4 L 199.4 178.7 L 200.7 186.9 L 203.0 194.9 L 206.0 202.8 L 209.8 210.3 L 214.3 217.7 L 219.5 224.7 L 225.2 231.4 L 231.5 237.8 L 238.4 243.9 L 245.7 249.6 L 253.5 255.0 L 261.7 260.0 L 270.3 264.6 L 278.9 268.5 Z" fill="url(#body)" stroke="#2A2F45" stroke-width="6" stroke-linejoin="round"/><path d="M 270.0 244.6 L 262.5 240.3 L 255.4 235.7 L 248.7 230.8 L 242.5 225.6 L 236.8 220.1 L 231.6 214.4 L 227.0 208.5 L 223.0 202.4 L 219.6 196.2 L 216.8 189.8 L 214.8 183.3 L 213.4 176.7 L 212.9 170.1 L 213.1 163.4 L 214.1 156.7 L 216.0 150.0 L 216.1 146.5 L 215.6 143.2 L 214.6 140.1 L 213.3 137.2 L 211.5 134.7 L 209.5 132.5 L 207.2 130.8 L 204.7 129.5 L 202.1 128.6 L 199.6 128.1 L 197.0 128.0 L 194.6 128.4 L 192.4 129.1 L 190.4 130.1 L 188.6 131.3 L 187.2 132.8 L 186.0 134.4 L 185.2 136.1 L 184.7 137.8 L 184.5 139.5 L 184.6 141.1 " fill="none" stroke="#D94E2A" stroke-width="3.2" stroke-linecap="round" opacity="0.5"/><path d="M 401.1 268.5 L 409.7 264.6 L 418.3 260.0 L 426.5 255.0 L 434.3 249.6 L 441.6 243.9 L 448.5 237.8 L 454.8 231.4 L 460.5 224.7 L 465.7 217.7 L 470.2 210.3 L 474.0 202.8 L 477.0 194.9 L 479.3 186.9 L 480.6 178.7 L 481.0 170.4 L 480.4 162.1 L 478.8 153.9 L 476.6 147.6 L 476.4 147.3 L 476.3 145.8 L 476.4 144.4 L 476.6 143.0 L 477.1 141.7 L 477.7 140.5 L 478.4 139.4 L 479.3 138.4 L 480.3 137.7 L 481.3 137.0 L 482.5 136.6 L 483.6 136.3 L 484.8 136.2 L 485.9 136.2 L 487.0 136.5 L 488.1 136.8 L 489.0 137.4 L 489.9 138.0 L 490.6 138.8 L 491.2 139.7 L 491.7 140.6 L 491.9 141.6 L 492.0 142.6 L 492.0 143.7 L 491.7 144.7 L 491.1 145.7 L 492.6 147.7 L 494.0 147.3 L 495.5 146.5 L 496.9 145.3 L 498.2 143.7 L 499.1 141.7 L 499.8 139.4 L 500.0 136.9 L 499.7 134.2 L 498.9 131.5 L 497.6 128.8 L 495.7 126.2 L 493.3 123.9 L 490.4 122.0 L 487.1 120.5 L 483.5 119.5 L 479.5 119.2 L 475.5 119.5 L 471.3 120.5 L 467.3 122.2 L 463.4 124.6 L 459.9 127.7 L 456.9 131.5 L 454.4 135.8 L 452.5 140.6 L 451.4 145.8 L 451.4 152.4 L 453.0 159.5 L 453.4 164.6 L 453.3 169.7 L 452.5 174.7 L 451.2 179.6 L 449.3 184.6 L 446.9 189.6 L 443.9 194.5 L 440.3 199.3 L 436.2 204.1 L 431.6 208.8 L 426.5 213.3 L 420.9 217.6 L 414.9 221.7 L 408.6 225.6 L 401.8 229.1 L 394.7 232.4 L 386.9 235.5 Z" fill="url(#body)" stroke="#2A2F45" stroke-width="6" stroke-linejoin="round"/><path d="M 410.0 244.6 L 417.5 240.3 L 424.6 235.7 L 431.3 230.8 L 437.5 225.6 L 443.2 220.1 L 448.4 214.4 L 453.0 208.5 L 457.0 202.4 L 460.4 196.2 L 463.2 189.8 L 465.2 183.3 L 466.6 176.7 L 467.1 170.1 L 466.9 163.4 L 465.9 156.7 L 464.0 150.0 L 463.9 146.5 L 464.4 143.2 L 465.4 140.1 L 466.7 137.2 L 468.5 134.7 L 470.5 132.5 L 472.8 130.8 L 475.3 129.5 L 477.9 128.6 L 480.4 128.1 L 483.0 128.0 L 485.4 128.4 L 487.6 129.1 L 489.6 130.1 L 491.4 131.3 L 492.8 132.8 L 494.0 134.4 L 494.8 136.1 L 495.3 137.8 L 495.5 139.5 L 495.4 141.1 " fill="none" stroke="#D94E2A" stroke-width="3.2" stroke-linecap="round" opacity="0.5"/><path d="M 258.7 272.6 L 247.4 278.3 L 236.4 284.6 L 226.1 291.2 L 216.5 298.2 L 207.6 305.6 L 199.4 313.1 L 191.8 320.9 L 184.9 328.8 L 178.6 336.9 L 172.9 345.0 L 167.8 353.1 L 163.2 361.2 L 159.2 369.2 L 155.6 377.1 L 152.6 384.9 L 150.0 392.5 L 147.9 399.8 L 146.5 406.0 L 147.8 403.9 L 147.9 404.3 L 148.0 404.7 L 148.0 405.1 L 148.0 405.6 L 148.0 406.0 L 147.9 406.4 L 147.8 406.8 L 147.7 407.2 L 147.5 407.6 L 147.2 408.0 L 147.0 408.4 L 146.6 408.7 L 146.3 409.0 L 145.9 409.3 L 145.4 409.5 L 145.0 409.7 L 144.5 409.8 L 143.9 409.8 L 143.4 409.8 L 142.9 409.7 L 142.4 409.5 L 141.9 409.2 L 141.5 408.8 L 141.1 408.4 L 140.8 407.8 L 138.5 406.8 L 137.8 407.3 L 137.1 408.1 L 136.5 409.0 L 136.1 410.1 L 135.8 411.4 L 135.7 412.7 L 135.8 414.1 L 136.2 415.5 L 136.7 417.0 L 137.5 418.4 L 138.5 419.8 L 139.8 421.0 L 141.2 422.2 L 142.8 423.2 L 144.6 424.0 L 146.6 424.7 L 148.7 425.1 L 150.9 425.2 L 153.2 425.1 L 155.5 424.7 L 157.8 424.0 L 160.1 423.1 L 162.4 421.8 L 164.5 420.3 L 166.5 418.5 L 169.5 414.0 L 171.8 407.2 L 174.2 401.1 L 176.9 394.8 L 180.0 388.3 L 183.5 381.8 L 187.5 375.1 L 191.8 368.4 L 196.6 361.8 L 201.9 355.1 L 207.6 348.6 L 213.9 342.2 L 220.6 335.9 L 227.9 329.8 L 235.7 324.0 L 244.1 318.4 L 253.0 313.1 L 262.6 308.2 L 273.3 303.4 Z" fill="url(#body)" stroke="#2A2F45" stroke-width="6" stroke-linejoin="round"/><path d="M 244.7 298.8 L 235.1 304.8 L 226.1 311.1 L 217.7 317.7 L 210.0 324.5 L 202.8 331.5 L 196.3 338.7 L 190.2 346.0 L 184.8 353.4 L 179.8 360.8 L 175.3 368.1 L 171.3 375.5 L 167.8 382.7 L 164.8 389.9 L 162.1 396.8 L 159.9 403.5 L 158.0 410.0 L 157.1 411.2 L 156.2 412.3 L 155.2 413.3 L 154.1 414.1 L 152.9 414.8 L 151.8 415.3 L 150.6 415.7 L 149.4 416.0 L 148.2 416.1 L 147.0 416.1 L 145.9 416.0 L 144.9 415.8 L 143.9 415.5 L 143.0 415.0 L 142.2 414.5 L 141.5 414.0 L 140.8 413.3 L 140.3 412.6 L 139.9 411.9 L 139.6 411.2 L 139.4 410.5 " fill="none" stroke="#D94E2A" stroke-width="3.2" stroke-linecap="round" opacity="0.5"/><path d="M 406.7 303.4 L 417.4 308.2 L 427.0 313.1 L 435.9 318.4 L 444.3 324.0 L 452.1 329.8 L 459.4 335.9 L 466.1 342.2 L 472.4 348.6 L 478.1 355.1 L 483.4 361.8 L 488.2 368.4 L 492.5 375.1 L 496.5 381.8 L 500.0 388.3 L 503.1 394.8 L 505.8 401.1 L 508.2 407.2 L 510.5 414.0 L 513.5 418.5 L 515.5 420.3 L 517.6 421.8 L 519.9 423.1 L 522.2 424.0 L 524.5 424.7 L 526.8 425.1 L 529.1 425.2 L 531.3 425.1 L 533.4 424.7 L 535.4 424.0 L 537.2 423.2 L 538.8 422.2 L 540.2 421.0 L 541.5 419.8 L 542.5 418.4 L 543.3 417.0 L 543.8 415.5 L 544.2 414.1 L 544.3 412.7 L 544.2 411.4 L 543.9 410.1 L 543.5 409.0 L 542.9 408.1 L 542.2 407.3 L 541.5 406.8 L 539.2 407.8 L 538.9 408.4 L 538.5 408.8 L 538.1 409.2 L 537.6 409.5 L 537.1 409.7 L 536.6 409.8 L 536.1 409.8 L 535.5 409.8 L 535.0 409.7 L 534.6 409.5 L 534.1 409.3 L 533.7 409.0 L 533.4 408.7 L 533.0 408.4 L 532.8 408.0 L 532.5 407.6 L 532.3 407.2 L 532.2 406.8 L 532.1 406.4 L 532.0 406.0 L 532.0 405.6 L 532.0 405.1 L 532.0 404.7 L 532.1 404.3 L 532.2 403.9 L 533.5 406.0 L 532.1 399.8 L 530.0 392.5 L 527.4 384.9 L 524.4 377.1 L 520.8 369.2 L 516.8 361.2 L 512.2 353.1 L 507.1 345.0 L 501.4 336.9 L 495.1 328.8 L 488.2 320.9 L 480.6 313.1 L 472.4 305.6 L 463.5 298.2 L 453.9 291.2 L 443.6 284.6 L 432.6 278.3 L 421.3 272.6 Z" fill="url(#body)" stroke="#2A2F45" stroke-width="6" stroke-linejoin="round"/><path d="M 435.3 298.8 L 444.9 304.8 L 453.9 311.1 L 462.3 317.7 L 470.0 324.5 L 477.2 331.5 L 483.7 338.7 L 489.8 346.0 L 495.2 353.4 L 500.2 360.8 L 504.7 368.1 L 508.7 375.5 L 512.2 382.7 L 515.2 389.9 L 517.9 396.8 L 520.1 403.5 L 522.0 410.0 L 522.9 411.2 L 523.8 412.3 L 524.8 413.3 L 525.9 414.1 L 527.1 414.8 L 528.2 415.3 L 529.4 415.7 L 530.6 416.0 L 531.8 416.1 L 533.0 416.1 L 534.1 416.0 L 535.1 415.8 L 536.1 415.5 L 537.0 415.0 L 537.8 414.5 L 538.5 414.0 L 539.2 413.3 L 539.7 412.6 L 540.1 411.9 L 540.4 411.2 L 540.6 410.5 " fill="none" stroke="#D94E2A" stroke-width="3.2" stroke-linecap="round" opacity="0.5"/><path d="M 285.2 293.9 L 280.3 306.2 L 276.0 318.8 L 272.5 331.2 L 269.6 343.5 L 267.4 355.4 L 265.9 367.2 L 265.0 378.6 L 264.7 389.7 L 265.1 400.5 L 265.9 410.9 L 267.4 420.8 L 269.3 430.4 L 271.7 439.5 L 274.7 448.0 L 278.0 456.1 L 281.9 463.6 L 286.1 470.6 L 289.7 475.2 L 292.1 480.6 L 293.0 486.0 L 292.5 491.3 L 290.8 496.2 L 287.9 500.3 L 284.3 503.5 L 280.0 505.6 L 275.6 506.5 L 271.1 506.3 L 267.0 505.1 L 263.5 502.9 L 260.7 500.0 L 258.9 496.6 L 257.9 492.9 L 258.0 489.3 L 258.9 486.0 L 260.5 483.0 L 262.8 480.7 L 265.5 479.1 L 268.4 478.3 L 271.2 478.3 L 273.9 479.0 L 276.2 480.3 L 278.0 482.0 L 279.2 484.1 L 279.8 486.6 L 282.3 486.4 L 282.6 483.4 L 281.8 480.0 L 280.0 476.7 L 277.0 473.7 L 273.1 471.6 L 268.4 470.5 L 263.2 470.7 L 257.9 472.5 L 253.1 475.7 L 249.0 480.4 L 246.2 486.4 L 245.0 493.1 L 245.6 500.3 L 248.2 507.4 L 252.8 513.9 L 259.1 519.1 L 266.9 522.7 L 275.6 524.2 L 284.8 523.3 L 293.7 520.1 L 301.8 514.4 L 308.3 506.6 L 312.8 497.1 L 314.8 486.5 L 313.9 475.4 L 310.3 464.8 L 306.2 458.1 L 303.4 452.6 L 300.8 446.5 L 298.6 439.8 L 296.7 432.7 L 295.1 425.0 L 294.0 416.9 L 293.2 408.4 L 292.9 399.5 L 293.1 390.3 L 293.8 380.7 L 295.0 370.8 L 296.7 360.6 L 299.1 350.2 L 302.0 339.5 L 305.5 328.7 L 309.7 317.7 L 314.8 306.1 Z" fill="url(#body)" stroke="#2A2F45" stroke-width="6" stroke-linejoin="round"/><path d="M 290.8 323.7 L 287.2 335.4 L 284.3 346.8 L 282.1 358.0 L 280.4 369.0 L 279.4 379.6 L 278.9 390.0 L 279.0 400.0 L 279.6 409.6 L 280.7 418.9 L 282.2 427.7 L 284.2 436.1 L 286.6 443.9 L 289.4 451.3 L 292.6 458.1 L 296.2 464.4 L 300.0 470.0 L 303.0 478.0 L 303.9 486.2 L 302.7 494.2 L 299.6 501.4 L 294.9 507.4 L 289.0 511.8 L 282.4 514.5 L 275.6 515.4 L 269.0 514.5 L 263.1 512.1 L 258.1 508.4 L 254.5 503.7 L 252.2 498.4 L 251.5 493.0 L 252.1 487.8 L 253.9 483.2 L 256.8 479.4 L 260.4 476.6 L 264.3 474.9 L 268.4 474.4 L 272.2 474.9 " fill="none" stroke="#D94E2A" stroke-width="3.2" stroke-linecap="round" opacity="0.5"/><path d="M 376.0 310.6 L 385.5 321.0 L 394.5 331.0 L 403.0 341.0 L 411.0 350.7 L 418.6 360.2 L 425.8 369.5 L 432.5 378.7 L 438.8 387.6 L 444.7 396.2 L 450.3 404.7 L 455.4 412.8 L 460.2 420.7 L 464.5 428.4 L 468.6 435.7 L 472.2 442.7 L 475.6 449.5 L 478.5 455.9 L 481.5 462.7 L 484.8 466.8 L 486.9 468.4 L 489.1 469.7 L 491.3 470.7 L 493.6 471.4 L 495.9 471.9 L 498.2 472.1 L 500.4 472.0 L 502.6 471.7 L 504.6 471.1 L 506.4 470.4 L 508.1 469.4 L 509.6 468.3 L 511.0 467.1 L 512.1 465.8 L 512.9 464.3 L 513.6 462.9 L 514.0 461.4 L 514.2 460.0 L 514.2 458.7 L 514.1 457.4 L 513.7 456.2 L 513.2 455.2 L 512.6 454.3 L 511.9 453.6 L 511.2 453.1 L 508.9 454.3 L 508.8 454.9 L 508.4 455.4 L 508.1 455.8 L 507.6 456.1 L 507.2 456.4 L 506.7 456.5 L 506.2 456.7 L 505.7 456.7 L 505.2 456.7 L 504.7 456.6 L 504.2 456.5 L 503.8 456.3 L 503.4 456.1 L 503.0 455.8 L 502.6 455.5 L 502.3 455.2 L 502.1 454.8 L 501.8 454.4 L 501.6 454.0 L 501.5 453.6 L 501.3 453.2 L 501.2 452.8 L 501.2 452.4 L 501.1 451.9 L 501.1 451.5 L 502.5 453.3 L 500.5 447.1 L 497.8 439.9 L 494.7 432.3 L 491.3 424.5 L 487.5 416.4 L 483.3 408.0 L 478.7 399.4 L 473.7 390.4 L 468.3 381.3 L 462.4 371.9 L 456.2 362.2 L 449.5 352.4 L 442.4 342.3 L 434.8 332.1 L 426.8 321.6 L 418.3 311.0 L 409.3 300.2 L 400.0 289.4 Z" fill="url(#body)" stroke="#2A2F45" stroke-width="6" stroke-linejoin="round"/><path d="M 406.4 321.0 L 414.9 331.3 L 422.9 341.4 L 430.5 351.3 L 437.6 361.0 L 444.3 370.4 L 450.6 379.7 L 456.5 388.8 L 462.0 397.5 L 467.0 406.1 L 471.7 414.4 L 476.0 422.4 L 479.9 430.1 L 483.5 437.5 L 486.7 444.7 L 489.5 451.5 L 492.0 458.0 L 493.0 459.1 L 494.0 460.1 L 495.1 461.0 L 496.3 461.7 L 497.5 462.3 L 498.7 462.8 L 499.9 463.1 L 501.1 463.2 L 502.3 463.3 L 503.5 463.2 L 504.5 462.9 L 505.6 462.6 L 506.5 462.2 L 507.4 461.7 L 508.1 461.1 L 508.8 460.5 L 509.4 459.8 L 509.8 459.1 L 510.2 458.3 L 510.5 457.6 L 510.6 456.9 " fill="none" stroke="#D94E2A" stroke-width="3.2" stroke-linecap="round" opacity="0.5"/><path d="M 307.0 307.3 L 306.5 321.4 L 306.7 335.4 L 307.4 348.8 L 308.5 361.7 L 310.0 374.2 L 311.8 386.1 L 313.7 397.5 L 315.7 408.4 L 317.6 418.8 L 319.4 428.7 L 321.0 438.1 L 322.3 447.0 L 323.2 455.4 L 323.7 463.2 L 323.6 470.5 L 323.1 477.4 L 321.9 483.7 L 319.5 491.6 L 318.7 501.3 L 320.3 510.7 L 324.1 519.1 L 329.6 526.2 L 336.5 531.6 L 344.2 534.9 L 352.2 536.3 L 360.1 535.6 L 367.3 533.1 L 373.4 529.1 L 378.1 523.9 L 381.3 517.9 L 382.8 511.6 L 382.7 505.4 L 381.1 499.7 L 378.2 494.9 L 374.5 491.1 L 370.1 488.6 L 365.6 487.3 L 361.1 487.3 L 357.1 488.3 L 353.7 490.2 L 351.2 492.8 L 349.6 495.7 L 348.9 498.6 L 349.1 501.1 L 351.6 501.4 L 352.2 499.4 L 353.3 497.7 L 354.8 496.3 L 356.7 495.2 L 358.9 494.7 L 361.3 494.8 L 363.7 495.4 L 365.9 496.6 L 367.8 498.5 L 369.3 500.8 L 370.2 503.5 L 370.4 506.4 L 369.9 509.4 L 368.7 512.3 L 366.7 514.9 L 364.1 517.0 L 360.9 518.5 L 357.4 519.2 L 353.7 519.0 L 350.0 517.9 L 346.6 515.9 L 343.7 513.1 L 341.4 509.5 L 340.1 505.4 L 339.8 501.0 L 340.5 496.4 L 343.2 489.9 L 345.5 481.3 L 346.8 472.4 L 347.4 463.3 L 347.4 454.0 L 346.9 444.5 L 346.0 434.8 L 344.8 424.9 L 343.4 414.7 L 341.9 404.2 L 340.4 393.4 L 339.0 382.3 L 337.8 371.0 L 336.8 359.3 L 336.1 347.2 L 335.9 334.9 L 336.1 322.2 L 337.0 308.7 Z" fill="url(#body)" stroke="#2A2F45" stroke-width="6" stroke-linejoin="round"/><path d="M 321.3 335.1 L 321.8 348.0 L 322.7 360.5 L 323.9 372.6 L 325.4 384.2 L 327.1 395.5 L 328.8 406.3 L 330.5 416.8 L 332.1 426.8 L 333.5 436.5 L 334.6 445.8 L 335.3 454.7 L 335.6 463.3 L 335.2 471.5 L 334.3 479.3 L 332.6 486.8 L 330.0 494.0 L 329.2 501.1 L 330.2 508.1 L 332.7 514.3 L 336.6 519.7 L 341.5 523.8 L 347.1 526.4 L 353.0 527.7 L 358.7 527.4 L 364.1 525.8 L 368.7 523.1 L 372.4 519.4 L 375.0 515.1 L 376.3 510.5 L 376.5 505.9 L 375.6 501.6 L 373.8 497.8 L 371.1 494.8 L 368.0 492.6 L 364.6 491.3 L 361.2 491.0 L 358.0 491.5 " fill="none" stroke="#D94E2A" stroke-width="3.2" stroke-linecap="round" opacity="0.5"/><path d="M 343.0 308.7 L 343.9 322.2 L 344.1 334.9 L 343.9 347.2 L 343.2 359.3 L 342.2 371.0 L 341.0 382.3 L 339.6 393.4 L 338.1 404.2 L 336.6 414.7 L 335.2 424.9 L 334.0 434.8 L 333.1 444.5 L 332.6 454.0 L 332.6 463.3 L 333.2 472.4 L 334.5 481.3 L 336.8 489.9 L 339.5 496.4 L 340.2 501.0 L 339.9 505.4 L 338.6 509.5 L 336.3 513.1 L 333.4 515.9 L 330.0 517.9 L 326.3 519.0 L 322.6 519.2 L 319.1 518.5 L 315.9 517.0 L 313.3 514.9 L 311.3 512.3 L 310.1 509.4 L 309.6 506.4 L 309.8 503.5 L 310.7 500.8 L 312.2 498.5 L 314.1 496.6 L 316.3 495.4 L 318.7 494.8 L 321.1 494.7 L 323.3 495.2 L 325.2 496.3 L 326.7 497.7 L 327.8 499.4 L 328.4 501.4 L 330.9 501.1 L 331.1 498.6 L 330.4 495.7 L 328.8 492.8 L 326.3 490.2 L 322.9 488.3 L 318.9 487.3 L 314.4 487.3 L 309.9 488.6 L 305.5 491.1 L 301.8 494.9 L 298.9 499.7 L 297.3 505.4 L 297.2 511.6 L 298.7 517.9 L 301.9 523.9 L 306.6 529.1 L 312.7 533.1 L 319.9 535.6 L 327.8 536.3 L 335.8 534.9 L 343.5 531.6 L 350.4 526.2 L 355.9 519.1 L 359.7 510.7 L 361.3 501.3 L 360.5 491.6 L 358.1 483.7 L 356.9 477.4 L 356.4 470.5 L 356.3 463.2 L 356.8 455.4 L 357.7 447.0 L 359.0 438.1 L 360.6 428.7 L 362.4 418.8 L 364.3 408.4 L 366.3 397.5 L 368.2 386.1 L 370.0 374.2 L 371.5 361.7 L 372.6 348.8 L 373.3 335.4 L 373.5 321.4 L 373.0 307.3 Z" fill="url(#body)" stroke="#2A2F45" stroke-width="6" stroke-linejoin="round"/><path d="M 358.7 335.1 L 358.2 348.0 L 357.3 360.5 L 356.1 372.6 L 354.6 384.2 L 352.9 395.5 L 351.2 406.3 L 349.5 416.8 L 347.9 426.8 L 346.5 436.5 L 345.4 445.8 L 344.7 454.7 L 344.4 463.3 L 344.8 471.5 L 345.7 479.3 L 347.4 486.8 L 350.0 494.0 L 350.8 501.1 L 349.8 508.1 L 347.3 514.3 L 343.4 519.7 L 338.5 523.8 L 332.9 526.4 L 327.0 527.7 L 321.3 527.4 L 315.9 525.8 L 311.3 523.1 L 307.6 519.4 L 305.0 515.1 L 303.7 510.5 L 303.5 505.9 L 304.4 501.6 L 306.2 497.8 L 308.9 494.8 L 312.0 492.6 L 315.4 491.3 L 318.8 491.0 L 322.0 491.5 " fill="none" stroke="#D94E2A" stroke-width="3.2" stroke-linecap="round" opacity="0.5"/></g>
<g><circle cx="212.1" cy="149.2" r="3.0" fill="#FFC6AC" stroke="#2A2F45" stroke-width="1.5"/><circle cx="211.3" cy="141.4" r="2.6" fill="#FFC6AC" stroke="#2A2F45" stroke-width="1.5"/><circle cx="207.4" cy="134.8" r="2.3" fill="#FFC6AC" stroke="#2A2F45" stroke-width="1.5"/><circle cx="201.5" cy="131.1" r="2.0" fill="#FFC6AC" stroke="#2A2F45" stroke-width="1.5"/><circle cx="195.1" cy="130.5" r="2.0" fill="#FFC6AC" stroke="#2A2F45" stroke-width="1.5"/><circle cx="189.7" cy="132.6" r="2.0" fill="#FFC6AC" stroke="#2A2F45" stroke-width="1.5"/><circle cx="186.4" cy="136.6" r="2.0" fill="#FFC6AC" stroke="#2A2F45" stroke-width="1.5"/><circle cx="185.4" cy="141.0" r="2.0" fill="#FFC6AC" stroke="#2A2F45" stroke-width="1.5"/><circle cx="460.1" cy="150.8" r="3.0" fill="#FFC6AC" stroke="#2A2F45" stroke-width="1.5"/><circle cx="462.0" cy="138.8" r="2.6" fill="#FFC6AC" stroke="#2A2F45" stroke-width="1.5"/><circle cx="468.5" cy="130.2" r="2.3" fill="#FFC6AC" stroke="#2A2F45" stroke-width="1.5"/><circle cx="477.2" cy="126.0" r="2.0" fill="#FFC6AC" stroke="#2A2F45" stroke-width="1.5"/><circle cx="485.8" cy="126.3" r="2.0" fill="#FFC6AC" stroke="#2A2F45" stroke-width="1.5"/><circle cx="492.5" cy="130.0" r="2.0" fill="#FFC6AC" stroke="#2A2F45" stroke-width="1.5"/><circle cx="495.9" cy="135.7" r="2.0" fill="#FFC6AC" stroke="#2A2F45" stroke-width="1.5"/><circle cx="496.2" cy="141.3" r="2.0" fill="#FFC6AC" stroke="#2A2F45" stroke-width="1.5"/><circle cx="161.8" cy="411.3" r="3.0" fill="#FFC6AC" stroke="#2A2F45" stroke-width="1.5"/><circle cx="157.5" cy="416.0" r="2.6" fill="#FFC6AC" stroke="#2A2F45" stroke-width="1.5"/><circle cx="152.9" cy="418.2" r="2.3" fill="#FFC6AC" stroke="#2A2F45" stroke-width="1.5"/><circle cx="148.3" cy="418.8" r="2.0" fill="#FFC6AC" stroke="#2A2F45" stroke-width="1.5"/><circle cx="144.3" cy="417.9" r="2.0" fill="#FFC6AC" stroke="#2A2F45" stroke-width="1.5"/><circle cx="141.2" cy="415.9" r="2.0" fill="#FFC6AC" stroke="#2A2F45" stroke-width="1.5"/><circle cx="139.3" cy="413.4" r="2.0" fill="#FFC6AC" stroke="#2A2F45" stroke-width="1.5"/><circle cx="138.6" cy="410.7" r="2.0" fill="#FFC6AC" stroke="#2A2F45" stroke-width="1.5"/><circle cx="525.8" cy="408.7" r="3.0" fill="#FFC6AC" stroke="#2A2F45" stroke-width="1.5"/><circle cx="527.1" cy="410.6" r="2.6" fill="#FFC6AC" stroke="#2A2F45" stroke-width="1.5"/><circle cx="529.4" cy="412.5" r="2.3" fill="#FFC6AC" stroke="#2A2F45" stroke-width="1.5"/><circle cx="532.0" cy="413.5" r="2.0" fill="#FFC6AC" stroke="#2A2F45" stroke-width="1.5"/><circle cx="534.5" cy="413.7" r="2.0" fill="#FFC6AC" stroke="#2A2F45" stroke-width="1.5"/><circle cx="536.8" cy="413.1" r="2.0" fill="#FFC6AC" stroke="#2A2F45" stroke-width="1.5"/><circle cx="538.7" cy="411.9" r="2.0" fill="#FFC6AC" stroke="#2A2F45" stroke-width="1.5"/><circle cx="539.9" cy="410.3" r="2.0" fill="#FFC6AC" stroke="#2A2F45" stroke-width="1.5"/><circle cx="303.6" cy="468.2" r="3.0" fill="#FFC6AC" stroke="#2A2F45" stroke-width="1.5"/><circle cx="306.1" cy="495.2" r="2.6" fill="#FFC6AC" stroke="#2A2F45" stroke-width="1.5"/><circle cx="290.5" cy="514.5" r="2.3" fill="#FFC6AC" stroke="#2A2F45" stroke-width="1.5"/><circle cx="268.3" cy="517.1" r="2.0" fill="#FFC6AC" stroke="#2A2F45" stroke-width="1.5"/><circle cx="252.6" cy="504.8" r="2.0" fill="#FFC6AC" stroke="#2A2F45" stroke-width="1.5"/><circle cx="250.4" cy="487.4" r="2.0" fill="#FFC6AC" stroke="#2A2F45" stroke-width="1.5"/><circle cx="259.7" cy="475.5" r="2.0" fill="#FFC6AC" stroke="#2A2F45" stroke-width="1.5"/><circle cx="272.4" cy="474.2" r="2.0" fill="#FFC6AC" stroke="#2A2F45" stroke-width="1.5"/><circle cx="495.7" cy="456.3" r="3.0" fill="#FFC6AC" stroke="#2A2F45" stroke-width="1.5"/><circle cx="497.2" cy="458.1" r="2.6" fill="#FFC6AC" stroke="#2A2F45" stroke-width="1.5"/><circle cx="499.6" cy="459.8" r="2.3" fill="#FFC6AC" stroke="#2A2F45" stroke-width="1.5"/><circle cx="502.2" cy="460.6" r="2.0" fill="#FFC6AC" stroke="#2A2F45" stroke-width="1.5"/><circle cx="504.8" cy="460.6" r="2.0" fill="#FFC6AC" stroke="#2A2F45" stroke-width="1.5"/><circle cx="507.0" cy="459.8" r="2.0" fill="#FFC6AC" stroke="#2A2F45" stroke-width="1.5"/><circle cx="508.8" cy="458.5" r="2.0" fill="#FFC6AC" stroke="#2A2F45" stroke-width="1.5"/><circle cx="509.9" cy="456.8" r="2.0" fill="#FFC6AC" stroke="#2A2F45" stroke-width="1.5"/><circle cx="333.9" cy="494.9" r="3.0" fill="#FFC6AC" stroke="#2A2F45" stroke-width="1.5"/><circle cx="335.9" cy="512.6" r="2.6" fill="#FFC6AC" stroke="#2A2F45" stroke-width="1.5"/><circle cx="348.1" cy="523.5" r="2.3" fill="#FFC6AC" stroke="#2A2F45" stroke-width="1.5"/><circle cx="363.0" cy="523.4" r="2.0" fill="#FFC6AC" stroke="#2A2F45" stroke-width="1.5"/><circle cx="373.0" cy="514.2" r="2.0" fill="#FFC6AC" stroke="#2A2F45" stroke-width="1.5"/><circle cx="374.0" cy="502.1" r="2.0" fill="#FFC6AC" stroke="#2A2F45" stroke-width="1.5"/><circle cx="367.4" cy="493.7" r="2.0" fill="#FFC6AC" stroke="#2A2F45" stroke-width="1.5"/><circle cx="358.2" cy="492.3" r="2.0" fill="#FFC6AC" stroke="#2A2F45" stroke-width="1.5"/><circle cx="353.9" cy="493.1" r="3.0" fill="#FFC6AC" stroke="#2A2F45" stroke-width="1.5"/><circle cx="350.4" cy="516.1" r="2.6" fill="#FFC6AC" stroke="#2A2F45" stroke-width="1.5"/><circle cx="333.9" cy="529.4" r="2.3" fill="#FFC6AC" stroke="#2A2F45" stroke-width="1.5"/><circle cx="314.9" cy="528.2" r="2.0" fill="#FFC6AC" stroke="#2A2F45" stroke-width="1.5"/><circle cx="303.0" cy="516.0" r="2.0" fill="#FFC6AC" stroke="#2A2F45" stroke-width="1.5"/><circle cx="302.8" cy="501.0" r="2.0" fill="#FFC6AC" stroke="#2A2F45" stroke-width="1.5"/><circle cx="311.4" cy="491.5" r="2.0" fill="#FFC6AC" stroke="#2A2F45" stroke-width="1.5"/><circle cx="322.2" cy="490.8" r="2.0" fill="#FFC6AC" stroke="#2A2F45" stroke-width="1.5"/></g>
<g transform="translate(185.2,136.1) rotate(0) scale(1.32)" stroke="#2A2F45" stroke-width="3.03" stroke-linecap="round" stroke-linejoin="round"><path d="M -4 26 L 4 26 L 4 -8 L -4 -8 Z" fill="#E7ECF4"/><path d="M -11 -26 L -11 -12 Q -11 -6 -5 -6 L -3 -6 L -3 -14 L 3 -14 L 3 -6 L 5 -6 Q 11 -6 11 -12 L 11 -26 L 4 -26 L 4 -18 L -4 -18 L -4 -26 Z" fill="#E7ECF4"/></g><g transform="translate(494.8,136.1) rotate(0) scale(1.32)" stroke="#2A2F45" stroke-width="3.03" stroke-linecap="round" stroke-linejoin="round"><rect x="-6" y="-34" width="12" height="30" rx="4" fill="#EE6440"/><path d="M -8 -6 L 8 -6 L 6 14 Q 0 20 -6 14 Z" fill="#7FA8D0"/></g><g transform="translate(140.3,412.6) rotate(0) scale(1.32)" stroke="#2A2F45" stroke-width="3.03" stroke-linecap="round" stroke-linejoin="round"><line x1="0" y1="-34" x2="0" y2="2" stroke="#C98A4A" stroke-width="5"/><path d="M -13 24 L -8 2 L 8 2 L 13 24 Z" fill="#F2A93B"/><line x1="-6" y1="10" x2="-8" y2="24" stroke="#C98A4A" stroke-width="2.5"/><line x1="0" y1="10" x2="0" y2="24" stroke="#C98A4A" stroke-width="2.5"/><line x1="6" y1="10" x2="8" y2="24" stroke="#C98A4A" stroke-width="2.5"/></g><g transform="translate(539.7,412.6) rotate(0) scale(1.32)" stroke="#2A2F45" stroke-width="3.03" stroke-linecap="round" stroke-linejoin="round"><path d="M -15 -4 L 15 -4 L 12 26 L -12 26 Z" fill="#EE6440"/><path d="M -8 -4 a8 9 0 0 1 16 0" fill="none"/></g><g transform="translate(509.8,459.1) rotate(0) scale(1.32)" stroke="#2A2F45" stroke-width="3.03" stroke-linecap="round" stroke-linejoin="round"><line x1="-7" y1="-22" x2="-7" y2="22" stroke="#9AA6BF" stroke-width="5"/><path d="M 9 -22 L 9 22 M 5 -22 L 5 -6 M 13 -22 L 13 -6 M 9 -22 L 9 -6" stroke="#9AA6BF" stroke-width="3.6"/></g>
<ellipse cx="340" cy="196" rx="98" ry="130" fill="url(#body)" stroke="#2A2F45" stroke-width="6.5"/><ellipse cx="340" cy="236" rx="72" ry="84" fill="#FF9E7C" opacity="0.5"/><ellipse cx="304" cy="130" rx="20" ry="31" fill="#FFCDB8" opacity="0.85" transform="rotate(-18 304 130)"/><circle cx="382" cy="116" r="7" fill="#FFCDB8" opacity="0.9"/>
<path d="M 289 181 Q 305 173 319 180" fill="none" stroke="#2A2F45" stroke-width="5" stroke-linecap="round"/><path d="M 361 180 Q 375 173 391 181" fill="none" stroke="#2A2F45" stroke-width="5" stroke-linecap="round"/><ellipse cx="305" cy="208" rx="20" ry="23" fill="#FFF7F1" stroke="#2A2F45" stroke-width="4"/><circle cx="303" cy="211" r="8.5" fill="#2A2F45"/><circle cx="300" cy="207" r="3" fill="#fff"/><ellipse cx="375" cy="208" rx="20" ry="23" fill="#FFF7F1" stroke="#2A2F45" stroke-width="4"/><circle cx="377" cy="211" r="8.5" fill="#2A2F45"/><circle cx="374" cy="207" r="3" fill="#fff"/><path d="M 315 244 Q 340 282 365 244 Q 340 260 315 244 Z" fill="#B23A2E" stroke="#2A2F45" stroke-width="4" stroke-linejoin="round"/><path d="M 326 265 Q 340 274 354 265" fill="#E8836F"/>
<g stroke="#2A2F45" stroke-width="3" stroke-linejoin="round"><path d="M 394 133 L 390 152 L 400 145 L 410 152 L 406 133 Z" fill="#EE6440"/><circle cx="400" cy="124" r="12.5" fill="#FF9A3D"/><circle cx="400" cy="124" r="5.5" fill="#FFE6B4" stroke-width="2"/></g><g stroke="#2A2F45" stroke-width="4" stroke-linejoin="round"><path d="M 340 352 L 304 333 Q 297 352 304 371 Z" fill="#6E82A6"/><path d="M 340 352 L 376 333 Q 383 352 376 371 Z" fill="#6E82A6"/><circle cx="340" cy="352" r="8.5" fill="#51648A"/></g>
</svg>